<svg width="44.000000" height="44.000000" viewBox="0 0 44 44" fill="none" xmlns="http://www.w3.org/2000/svg" xmlns:xlink="http://www.w3.org/1999/xlink">
	<desc>
			Created with Pixso.
	</desc>
	<defs/>
	<rect id="Rectangle 2" rx="14.000000" width="44.000000" height="44.000000" fill="#008EFF" fill-opacity="1.000000"/>
	<rect id="vuesax/bold/gift" rx="-0.500000" width="21.000000" height="21.000000" transform="translate(11.500000 11.500000)" fill="#FFFFFF" fill-opacity="0"/>
	<path id="Vector" d="M29.33 22L29.33 27.5C29.33 29.52 27.69 31.16 25.66 31.16L18.33 31.16C16.3 31.16 14.66 29.52 14.66 27.5L14.66 22C14.66 21.49 15.07 21.08 15.58 21.08L17.38 21.08C17.89 21.08 18.3 21.49 18.3 22L18.3 24.87C18.3 25.55 18.68 26.18 19.27 26.5C19.54 26.64 19.83 26.72 20.13 26.72C20.48 26.72 20.83 26.62 21.13 26.41L22 25.85L22.81 26.39C23.37 26.76 24.08 26.81 24.68 26.49C25.29 26.17 25.66 25.55 25.66 24.86L25.66 22C25.66 21.49 26.07 21.08 26.58 21.08L28.41 21.08C28.92 21.08 29.33 21.49 29.33 22Z" fill="#FFFFFF" fill-opacity="1.000000" fill-rule="nonzero"/>
	<path id="Vector" d="M30.7 17.41L30.7 18.33C30.7 19.34 30.22 20.16 28.87 20.16L15.12 20.16C13.72 20.16 13.29 19.34 13.29 18.33L13.29 17.41C13.29 16.4 13.72 15.58 15.12 15.58L28.87 15.58C30.22 15.58 30.7 16.4 30.7 17.41Z" fill="#FFFFFF" fill-opacity="1.000000" fill-rule="nonzero"/>
	<path id="Vector" d="M21.66 15.58L16.6 15.58C16.29 15.24 16.3 14.72 16.63 14.39L17.93 13.09C18.27 12.75 18.83 12.75 19.17 13.09L21.66 15.58Z" fill="#FFFFFF" fill-opacity="1.000000" fill-rule="nonzero"/>
	<path id="Vector" d="M27.38 15.58L22.32 15.58L24.81 13.09C25.15 12.75 25.71 12.75 26.05 13.09L27.35 14.39C27.68 14.72 27.69 15.24 27.38 15.58Z" fill="#FFFFFF" fill-opacity="1.000000" fill-rule="nonzero"/>
	<path id="Vector" d="M23.8 21.08C24.31 21.08 24.72 21.49 24.72 22L24.72 24.86C24.72 25.6 23.9 26.04 23.3 25.63L22.47 25.08C22.17 24.87 21.77 24.87 21.46 25.08L20.6 25.64C20 26.05 19.19 25.61 19.19 24.88L19.19 22C19.19 21.49 19.6 21.08 20.11 21.08L23.8 21.08Z" fill="#FFFFFF" fill-opacity="1.000000" fill-rule="nonzero"/>
	<g opacity="0.000000"/>
</svg>
