<svg width="44.000000" height="44.000000" viewBox="0 0 44 44" fill="none" xmlns="http://www.w3.org/2000/svg" xmlns:xlink="http://www.w3.org/1999/xlink">
	<desc>
			Created with Pixso.
	</desc>
	<defs/>
	<rect id="Rectangle 2" rx="14.000000" width="44.000000" height="44.000000" fill="#008EFF" fill-opacity="1.000000"/>
	<rect id="vuesax/bold/message-question" rx="-0.500000" width="21.000000" height="21.000000" transform="translate(11.500000 11.500000)" fill="#FFFFFF" fill-opacity="0"/>
	<g opacity="0.000000"/>
	<path id="Vector" d="M26.58 13.22L17.41 13.22C14.66 13.22 12.83 15.06 12.83 17.81L12.83 23.31C12.83 26.06 14.66 27.89 17.41 27.89L17.41 29.84C17.41 30.58 18.23 31.02 18.83 30.6L22.91 27.89L26.58 27.89C29.33 27.89 31.16 26.06 31.16 23.31L31.16 17.81C31.16 15.06 29.33 13.22 26.58 13.22ZM22 24.38C21.61 24.38 21.31 24.07 21.31 23.69C21.31 23.32 21.61 23 22 23C22.38 23 22.68 23.32 22.68 23.69C22.68 24.07 22.38 24.38 22 24.38ZM23.15 20.57C22.79 20.81 22.68 20.97 22.68 21.23L22.68 21.42C22.68 21.79 22.37 22.11 22 22.11C21.62 22.11 21.31 21.79 21.31 21.42L21.31 21.23C21.31 20.16 22.09 19.64 22.38 19.44C22.72 19.21 22.83 19.05 22.83 18.81C22.83 18.36 22.45 17.98 22 17.98C21.54 17.98 21.16 18.36 21.16 18.81C21.16 19.19 20.85 19.5 20.47 19.5C20.1 19.5 19.79 19.19 19.79 18.81C19.79 17.6 20.78 16.61 22 16.61C23.21 16.61 24.2 17.6 24.2 18.81C24.2 19.86 23.43 20.38 23.15 20.57Z" fill="#FFFFFF" fill-opacity="1.000000" fill-rule="nonzero"/>
</svg>
