<svg width="44.000000" height="44.000000" viewBox="0 0 44 44" fill="none" xmlns="http://www.w3.org/2000/svg" xmlns:xlink="http://www.w3.org/1999/xlink">
	<desc>
			Created with Pixso.
	</desc>
	<defs>
		<clipPath id="clip2002_15703">
			<rect id="Frame" rx="-0.500000" width="21.000000" height="21.000000" transform="translate(11.500000 11.500000)" fill="white" fill-opacity="0"/>
		</clipPath>
	</defs>
	<rect id="Rectangle 2" rx="14.000000" width="44.000000" height="44.000000" fill="#008EFF" fill-opacity="1.000000"/>
	<rect id="Frame" rx="-0.500000" width="21.000000" height="21.000000" transform="translate(11.500000 11.500000)" fill="#FFFFFF" fill-opacity="0"/>
	<g clip-path="url(#clip2002_15703)">
		<path id="Vector" d="M16.12 13.75L18.71 13.75C20.02 13.75 21.08 14.81 21.08 16.12L21.08 18.71C21.08 20.02 20.02 21.08 18.71 21.08L16.12 21.08C14.81 21.08 13.75 20.02 13.75 18.71L13.75 16.12C13.75 14.81 14.81 13.75 16.12 13.75Z" fill="#FFFFFF" fill-opacity="1.000000" fill-rule="evenodd"/>
		<path id="Vector" d="M16.12 22.91L18.71 22.91C20.02 22.91 21.08 23.97 21.08 25.28L21.08 27.87C21.08 29.18 20.02 30.25 18.71 30.25L16.12 30.25C14.81 30.25 13.75 29.18 13.75 27.87L13.75 25.28C13.75 23.97 14.81 22.91 16.12 22.91Z" fill="#FFFFFF" fill-opacity="1.000000" fill-rule="evenodd"/>
		<path id="Vector" d="M25.28 13.75L27.87 13.75C29.18 13.75 30.25 14.81 30.25 16.12L30.25 18.71C30.25 20.02 29.18 21.08 27.87 21.08L25.28 21.08C23.97 21.08 22.91 20.02 22.91 18.71L22.91 16.12C22.91 14.81 23.97 13.75 25.28 13.75Z" fill="#FFFFFF" fill-opacity="1.000000" fill-rule="evenodd"/>
		<path id="Vector" d="M25.28 22.91L27.87 22.91C29.18 22.91 30.25 23.97 30.25 25.28L30.25 27.87C30.25 29.18 29.18 30.25 27.87 30.25L25.28 30.25C23.97 30.25 22.91 29.18 22.91 27.87L22.91 25.28C22.91 23.97 23.97 22.91 25.28 22.91Z" fill="#FFFFFF" fill-opacity="1.000000" fill-rule="evenodd"/>
	</g>
</svg>
