<svg width="44.000000" height="44.000000" viewBox="0 0 44 44" fill="none" xmlns="http://www.w3.org/2000/svg" xmlns:xlink="http://www.w3.org/1999/xlink">
	<desc>
			Created with Pixso.
	</desc>
	<defs>
		<clipPath id="clip2002_37743">
			<rect id="Frame" rx="-0.500000" width="21.000000" height="21.000000" transform="translate(11.500000 11.500000)" fill="white" fill-opacity="0"/>
		</clipPath>
	</defs>
	<rect id="Rectangle 2" rx="14.000000" width="44.000000" height="44.000000" fill="#008EFF" fill-opacity="1.000000"/>
	<rect id="Frame" rx="-0.500000" width="21.000000" height="21.000000" transform="translate(11.500000 11.500000)" fill="#FFFFFF" fill-opacity="0"/>
	<g clip-path="url(#clip2002_37743)">
		<path id="Vector" d="M32.78 18.18L32.31 17.7C32.03 17.42 31.57 17.42 31.29 17.7C31.01 17.98 31.01 18.44 31.29 18.72L31.77 19.2C31.91 19.34 32.09 19.41 32.28 19.41C32.46 19.41 32.64 19.34 32.78 19.2C33.06 18.92 33.06 18.46 32.78 18.18Z" fill="#FFFFFF" fill-opacity="1.000000" fill-rule="nonzero"/>
		<path id="Vector" d="M29.91 17.7C29.63 17.42 29.18 17.42 28.9 17.7L28.42 18.18C28.14 18.46 28.14 18.92 28.42 19.2C28.56 19.34 28.75 19.41 28.93 19.41C29.11 19.41 29.3 19.34 29.44 19.2L29.91 18.72C30.2 18.44 30.2 17.98 29.91 17.7Z" fill="#FFFFFF" fill-opacity="1.000000" fill-rule="nonzero"/>
		<path id="Vector" d="M32.78 14.83C32.64 14.69 32.46 14.62 32.28 14.62C32.09 14.62 31.91 14.69 31.77 14.83L31.29 15.31C31.01 15.59 31.01 16.05 31.29 16.33C31.57 16.61 32.03 16.61 32.31 16.33L32.78 15.85C33.06 15.57 33.06 15.11 32.78 14.83Z" fill="#FFFFFF" fill-opacity="1.000000" fill-rule="nonzero"/>
		<path id="Vector" d="M29.97 15.49L28.96 14.47C28.12 13.63 26.75 13.63 25.91 14.47L25.58 14.81L24.56 13.8C24.28 13.51 23.83 13.51 23.55 13.8L21.63 15.71C20.7 15.32 19.69 15.11 18.64 15.11C16.6 15.11 14.68 15.9 13.23 17.35C10.25 20.33 10.25 25.18 13.23 28.17C14.68 29.61 16.6 30.41 18.64 30.41C20.69 30.41 22.61 29.61 24.05 28.17C25.5 26.72 26.29 24.8 26.29 22.76C26.29 21.71 26.08 20.7 25.69 19.77L27.61 17.85C27.89 17.57 27.89 17.12 27.61 16.84L26.59 15.82L26.93 15.49C27.21 15.21 27.66 15.21 27.94 15.49L28.96 16.5C29.1 16.64 29.28 16.71 29.47 16.71C29.65 16.71 29.83 16.64 29.97 16.5C30.25 16.22 30.25 15.77 29.97 15.49ZM22.03 26.13C21.12 27.04 19.92 27.54 18.65 27.54C17.37 27.54 16.17 27.04 15.27 26.13C14.99 25.85 14.99 25.4 15.27 25.12C15.55 24.84 16 24.84 16.28 25.12C16.91 25.75 17.75 26.1 18.65 26.1C19.54 26.1 20.38 25.75 21.01 25.12C21.29 24.84 21.75 24.84 22.03 25.12C22.31 25.4 22.31 25.85 22.03 26.13Z" fill="#FFFFFF" fill-opacity="1.000000" fill-rule="nonzero"/>
	</g>
</svg>
