<svg width="44.000000" height="44.000000" viewBox="0 0 44 44" fill="none" xmlns="http://www.w3.org/2000/svg" xmlns:xlink="http://www.w3.org/1999/xlink">
	<desc>
			Created with Pixso.
	</desc>
	<defs/>
	<rect id="Rectangle 2" rx="14.000000" width="44.000000" height="44.000000" fill="#008EFF" fill-opacity="1.000000"/>
	<rect id="vuesax/bold/bookmark-2" rx="-0.500000" width="21.000000" height="21.000000" transform="translate(11.500000 11.500000)" fill="#FFFFFF" fill-opacity="0"/>
	<path id="Vector" d="M26.58 15.54L26.58 22.07C26.58 23.89 25.29 24.6 23.7 23.65L22.49 22.91C22.21 22.75 21.77 22.75 21.5 22.91L20.29 23.65C18.7 24.6 17.41 23.89 17.41 22.07L17.41 15.57C17.42 13.75 18.34 12.83 20.16 12.83L23.83 12.83C25.64 12.83 26.56 13.74 26.58 15.54Z" fill="#FFFFFF" fill-opacity="1.000000" fill-rule="nonzero"/>
	<path id="Vector" d="M31.16 21.9L31.16 24.68C31.16 29.31 29.33 31.16 24.75 31.16L19.25 31.16C14.66 31.16 12.83 29.31 12.83 24.68L12.83 21.9C12.83 19.44 13.35 17.76 14.52 16.73C15.12 16.23 16.04 16.67 16.04 17.45L16.04 22.07C16.04 23.43 16.6 24.53 17.57 25.08C18.55 25.64 19.8 25.54 21.01 24.82L22 24.22L22.99 24.82C23.67 25.23 24.38 25.44 25.04 25.44C25.53 25.44 26 25.32 26.42 25.08C27.39 24.53 27.95 23.43 27.95 22.07L27.95 17.44C27.95 16.66 28.88 16.22 29.47 16.73C30.64 17.76 31.16 19.44 31.16 21.9Z" fill="#FFFFFF" fill-opacity="1.000000" fill-rule="nonzero"/>
	<g opacity="0.000000"/>
</svg>
