<svg width="44.000000" height="44.000000" viewBox="0 0 44 44" fill="none" xmlns="http://www.w3.org/2000/svg" xmlns:xlink="http://www.w3.org/1999/xlink">
	<desc>
			Created with Pixso.
	</desc>
	<defs/>
	<rect id="Rectangle 2" rx="14.000000" width="44.000000" height="44.000000" fill="#008EFF" fill-opacity="1.000000"/>
	<rect id="vuesax/bold/people" rx="-0.500000" width="21.000000" height="21.000000" transform="translate(11.500000 11.500000)" fill="#FFFFFF" fill-opacity="0"/>
	<g opacity="0.000000"/>
	<path id="Vector" d="M27.06 18.12C27 18.11 26.94 18.11 26.87 18.12C25.45 18.07 24.32 16.91 24.32 15.48C24.32 14.02 25.51 12.83 26.97 12.83C28.43 12.83 29.62 14.01 29.62 15.48C29.61 16.91 28.49 18.07 27.06 18.12Z" fill="#FFFFFF" fill-opacity="1.000000" fill-rule="nonzero"/>
	<path id="Vector" d="M30.05 24.47C29.03 25.16 27.59 25.41 26.26 25.24C26.61 24.49 26.79 23.65 26.8 22.77C26.8 21.86 26.6 20.99 26.21 20.23C27.57 20.04 29.01 20.3 30.04 20.99C31.49 21.94 31.49 23.51 30.05 24.47Z" fill="#FFFFFF" fill-opacity="1.000000" fill-rule="nonzero"/>
	<path id="Vector" d="M16.9 18.12C16.96 18.11 17.03 18.11 17.09 18.12C18.51 18.07 19.64 16.91 19.64 15.48C19.64 14.01 18.46 12.83 16.99 12.83C15.53 12.83 14.35 14.01 14.35 15.48C14.35 16.91 15.48 18.07 16.9 18.12Z" fill="#FFFFFF" fill-opacity="1.000000" fill-rule="nonzero"/>
	<path id="Vector" d="M17 22.77C17 23.66 17.19 24.51 17.54 25.27C16.25 25.41 14.9 25.13 13.91 24.48C12.46 23.52 12.46 21.95 13.91 20.99C14.89 20.33 16.28 20.06 17.58 20.21C17.2 20.98 17 21.85 17 22.77Z" fill="#FFFFFF" fill-opacity="1.000000" fill-rule="nonzero"/>
	<path id="Vector" d="M22.11 25.54C22.03 25.53 21.95 25.53 21.87 25.54C20.18 25.49 18.83 24.1 18.83 22.4C18.84 20.66 20.25 19.25 22 19.25C23.74 19.25 25.15 20.66 25.15 22.4C25.14 24.1 23.8 25.49 22.11 25.54Z" fill="#FFFFFF" fill-opacity="1.000000" fill-rule="nonzero"/>
	<path id="Vector" d="M19.13 27.44C17.74 28.37 17.74 29.89 19.13 30.8C20.7 31.86 23.29 31.86 24.86 30.8C26.25 29.88 26.25 28.36 24.86 27.44C23.3 26.39 20.71 26.39 19.13 27.44Z" fill="#FFFFFF" fill-opacity="1.000000" fill-rule="nonzero"/>
</svg>
