<svg width="48.000000" height="48.000000" viewBox="0 0 48 48" fill="none" xmlns="http://www.w3.org/2000/svg" xmlns:xlink="http://www.w3.org/1999/xlink">
	<desc>
			Created with Pixso.
	</desc>
	<defs>
		<clipPath id="clip2002_6909">
			<rect id="Frame" rx="-0.500000" width="23.000000" height="23.000000" transform="translate(12.500000 12.267334)" fill="white" fill-opacity="0"/>
		</clipPath>
		<linearGradient x1="24.000000" y1="0.000000" x2="24.000000" y2="48.000000" id="paint_linear_2002_6908_0" gradientUnits="userSpaceOnUse">
			<stop stop-color="#80C953"/>
			<stop offset="1.000000" stop-color="#447A22"/>
		</linearGradient>
	</defs>
	<rect id="Rectangle 2" rx="16.000000" width="48.000000" height="48.000000" fill="url(#paint_linear_2002_6908_0)" fill-opacity="1.000000"/>
	<rect id="Frame" rx="-0.500000" width="23.000000" height="23.000000" transform="translate(12.500000 12.267334)" fill="#FFFFFF" fill-opacity="0"/>
	<g clip-path="url(#clip2002_6909)">
		<path id="Vector" d="M19 30.76C21.1 30.76 22.8 29.36 23.8 28.26C24.8 29.36 26.6 30.76 28.6 30.76C32.2 30.76 34.7 28.36 34.7 24.76C34.7 20.86 31.6 18.26 28.6 15.76C27.2 14.66 25.7 13.46 24.6 12.16C24.4 11.86 24.1 11.76 23.8 11.76C23.5 11.76 23.2 11.86 23 12.16C21.9 13.46 20.4 14.66 19 15.76C16 18.26 12.9 20.76 12.9 24.76C12.9 28.36 15.4 30.76 19 30.76ZM20.1 35.36C22.6 34.96 25.1 34.96 27.5 35.36C25.1 31.66 23.8 24.56 23.8 24.56C23.8 24.56 22.6 31.66 20.1 35.36Z" fill="#FFFFFF" fill-opacity="1.000000" fill-rule="nonzero"/>
	</g>
</svg>
