<svg width="48.000000" height="48.000000" viewBox="0 0 48 48" fill="none" xmlns="http://www.w3.org/2000/svg" xmlns:xlink="http://www.w3.org/1999/xlink">
	<desc>
			Created with Pixso.
	</desc>
	<defs>
		<linearGradient x1="24.000000" y1="0.000000" x2="24.000000" y2="48.000000" id="paint_linear_2002_6884_0" gradientUnits="userSpaceOnUse">
			<stop stop-color="#FF4F4F"/>
			<stop offset="1.000000" stop-color="#FF994F"/>
		</linearGradient>
	</defs>
	<rect id="Rectangle 2" rx="16.000000" width="48.000000" height="48.000000" fill="url(#paint_linear_2002_6884_0)" fill-opacity="1.000000"/>
	<rect id="vuesax/bold/game" rx="-0.500000" width="23.000000" height="24.000000" transform="translate(12.500000 11.011597)" fill="#FFFFFF" fill-opacity="0"/>
	<path id="Vector" d="M28.65 16.46L19.34 16.46C16.4 16.46 14 18.96 14 22.04L14 27.85C14 30.92 16.4 33.42 19.34 33.42L28.65 33.42C31.59 33.42 34 30.92 34 27.85L34 22.04C34 18.96 31.59 16.46 28.65 16.46ZM26.5 23.03C26.5 22.45 26.95 21.99 27.5 21.99C28.04 21.99 28.5 22.45 28.5 23.03C28.5 23.6 28.04 24.08 27.5 24.08C26.95 24.08 26.5 23.62 26.5 23.05L26.5 23.03ZM22.12 27.25C21.98 27.4 21.79 27.48 21.59 27.48C21.41 27.48 21.21 27.4 21.07 27.25L20.04 26.17L19.04 27.2C18.9 27.36 18.7 27.43 18.51 27.43C18.33 27.43 18.13 27.36 17.99 27.2C17.7 26.9 17.7 26.4 17.99 26.1L18.98 25.07L18.01 24.07C17.73 23.77 17.73 23.27 18.01 22.97C18.3 22.66 18.79 22.66 19.08 22.97L20.04 23.97L21.03 22.93C21.32 22.63 21.79 22.63 22.08 22.93C22.37 23.24 22.37 23.74 22.08 24.04L21.09 25.07L22.12 26.14C22.41 26.44 22.41 26.94 22.12 27.25ZM25.54 26.13C24.99 26.13 24.53 25.66 24.53 25.09C24.53 24.52 24.96 24.05 25.51 24.05L25.54 24.05C26.08 24.05 26.54 24.52 26.54 25.09C26.54 25.66 26.09 26.13 25.54 26.13ZM27.5 28.18C26.95 28.18 26.5 27.73 26.5 27.15L26.5 27.13C26.5 26.56 26.95 26.09 27.5 26.09C28.04 26.09 28.5 26.56 28.5 27.13C28.5 27.7 28.05 28.18 27.5 28.18ZM29.48 26.13C28.92 26.13 28.46 25.66 28.46 25.09C28.46 24.52 28.91 24.05 29.46 24.05L29.48 24.05C30.03 24.05 30.48 24.52 30.48 25.09C30.48 25.66 30.04 26.13 29.48 26.13Z" fill="#FFFFFF" fill-opacity="1.000000" fill-rule="nonzero"/>
	<path id="Vector" d="M25.64 13.33L25.62 14.31C25.62 15.23 24.89 15.99 24 15.99C23.85 15.99 23.76 16.09 23.76 16.23C23.76 16.36 23.86 16.46 23.99 16.46L22.37 16.46C22.37 16.39 22.36 16.31 22.36 16.23C22.36 15.29 23.09 14.53 23.98 14.53C24.12 14.53 24.23 14.42 24.23 14.29L24.24 13.31C24.25 12.91 24.56 12.59 24.94 12.59L24.95 12.59C25.34 12.59 25.64 12.92 25.64 13.33Z" fill="#FFFFFF" fill-opacity="1.000000" fill-rule="nonzero"/>
	<g opacity="0.000000"/>
</svg>
