<svg width="44.000000" height="44.000000" viewBox="0 0 44 44" fill="none" xmlns="http://www.w3.org/2000/svg" xmlns:xlink="http://www.w3.org/1999/xlink">
	<desc>
			Created with Pixso.
	</desc>
	<defs/>
	<rect id="Rectangle 2" rx="14.000000" width="44.000000" height="44.000000" fill="#008EFF" fill-opacity="1.000000"/>
	<rect id="vuesax/bold/clipboard-text" rx="-0.500000" width="21.000000" height="21.000000" transform="translate(11.500000 11.500000)" fill="#FFFFFF" fill-opacity="0"/>
	<path id="Vector" d="M24.15 12.83L19.84 12.83C18.89 12.83 18.11 13.6 18.11 14.55L18.11 15.41C18.11 16.37 18.88 17.14 19.83 17.14L24.15 17.14C25.1 17.14 25.87 16.37 25.87 15.41L25.87 14.55C25.88 13.6 25.1 12.83 24.15 12.83Z" fill="#FFFFFF" fill-opacity="1.000000" fill-rule="nonzero"/>
	<path id="Vector" d="M26.8 15.41C26.8 16.87 25.61 18.06 24.15 18.06L19.84 18.06C18.38 18.06 17.19 16.87 17.19 15.41C17.19 14.9 16.64 14.58 16.18 14.82C14.89 15.51 14.01 16.87 14.01 18.44L14.01 27.06C14.01 29.32 15.85 31.16 18.11 31.16L25.88 31.16C28.14 31.16 29.98 29.32 29.98 27.06L29.98 18.44C29.98 16.87 29.1 15.51 27.81 14.82C27.35 14.58 26.8 14.9 26.8 15.41ZM22.34 26.53L18.33 26.53C17.95 26.53 17.64 26.22 17.64 25.85C17.64 25.47 17.95 25.16 18.33 25.16L22.34 25.16C22.72 25.16 23.03 25.47 23.03 25.85C23.03 26.22 22.72 26.53 22.34 26.53ZM24.75 22.87L18.33 22.87C17.95 22.87 17.64 22.55 17.64 22.18C17.64 21.8 17.95 21.49 18.33 21.49L24.75 21.49C25.12 21.49 25.43 21.8 25.43 22.18C25.43 22.55 25.12 22.87 24.75 22.87Z" fill="#FFFFFF" fill-opacity="1.000000" fill-rule="nonzero"/>
	<g opacity="0.000000"/>
</svg>
