<svg width="44.000000" height="44.000000" viewBox="0 0 44 44" fill="none" xmlns="http://www.w3.org/2000/svg" xmlns:xlink="http://www.w3.org/1999/xlink">
	<desc>
			Created with Pixso.
	</desc>
	<defs/>
	<rect id="Rectangle 2" rx="14.000000" width="44.000000" height="44.000000" fill="#008EFF" fill-opacity="1.000000"/>
	<rect id="vuesax/bold/cup" rx="-0.500000" width="21.000000" height="21.000000" transform="translate(11.500000 11.500000)" fill="#FFFFFF" fill-opacity="0"/>
	<path id="Vector" d="M21.31 27.72L19.25 27.72C18.24 27.72 17.41 28.55 17.41 29.56L17.41 29.79L16.5 29.79C16.12 29.79 15.81 30.1 15.81 30.47C15.81 30.85 16.12 31.16 16.5 31.16L27.5 31.16C27.87 31.16 28.18 30.85 28.18 30.47C28.18 30.1 27.87 29.79 27.5 29.79L26.58 29.79L26.58 29.56C26.58 28.55 25.75 27.72 24.75 27.72L22.68 27.72L22.68 25.63C22.45 25.65 22.22 25.66 22 25.66C21.77 25.66 21.54 25.65 21.31 25.63L21.31 27.72Z" fill="#FFFFFF" fill-opacity="1.000000" fill-rule="nonzero"/>
	<path id="Vector" d="M27.93 21.67C28.54 21.44 29.07 21.06 29.49 20.64C30.35 19.69 30.91 18.57 30.91 17.25C30.91 15.93 29.87 14.89 28.55 14.89L28.04 14.89C27.44 13.67 26.19 12.83 24.75 12.83L19.25 12.83C17.8 12.83 16.55 13.67 15.95 14.89L15.44 14.89C14.12 14.89 13.08 15.93 13.08 17.25C13.08 18.57 13.64 19.69 14.5 20.64C14.92 21.06 15.45 21.44 16.05 21.67C17.01 24.01 19.3 25.66 22 25.66C24.69 25.66 26.98 24.01 27.93 21.67ZM24.6 18.74L24.03 19.44C23.94 19.54 23.87 19.74 23.88 19.88L23.94 20.78C23.97 21.33 23.58 21.61 23.07 21.41L22.23 21.08C22.1 21.03 21.88 21.03 21.76 21.08L20.92 21.41C20.41 21.61 20.01 21.33 20.05 20.78L20.11 19.88C20.12 19.74 20.05 19.54 19.96 19.44L19.39 18.74C19.03 18.32 19.19 17.85 19.72 17.71L20.59 17.49C20.73 17.46 20.89 17.33 20.97 17.21L21.45 16.46C21.76 15.99 22.23 15.99 22.54 16.46L23.02 17.21C23.09 17.33 23.26 17.46 23.4 17.49L24.27 17.71C24.8 17.85 24.96 18.32 24.6 18.74Z" fill="#FFFFFF" fill-opacity="1.000000" fill-rule="nonzero"/>
	<g opacity="0.000000"/>
</svg>
