<svg width="48.000000" height="48.000000" viewBox="0 0 48 48" fill="none" xmlns="http://www.w3.org/2000/svg" xmlns:xlink="http://www.w3.org/1999/xlink">
	<desc>
			Created with Pixso.
	</desc>
	<defs>
		<clipPath id="clip8_2071">
			<rect id="ic_topslots" rx="-0.500000" width="21.000000" height="21.000000" transform="translate(13.500000 13.500000)" fill="white" fill-opacity="0"/>
		</clipPath>
		<linearGradient x1="24.000000" y1="0.000000" x2="24.000000" y2="48.000000" id="paint_linear_7_500_0" gradientUnits="userSpaceOnUse">
			<stop stop-color="#DDB147"/>
			<stop offset="1.000000" stop-color="#C67B51"/>
		</linearGradient>
	</defs>
	<rect id="Rectangle 2" rx="16.000000" width="48.000000" height="48.000000" fill="url(#paint_linear_7_500_0)" fill-opacity="1.000000"/>
	<rect id="ic_topslots" rx="-0.500000" width="21.000000" height="21.000000" transform="translate(13.500000 13.500000)" fill="#FFFFFF" fill-opacity="0"/>
	<g clip-path="url(#clip8_2071)">
		<path id="Vector" d="M32.24 26.74C32.24 31.3 28.55 34.99 23.99 34.99C19.44 34.99 15.74 31.3 15.74 26.74C15.74 23.69 17.41 20.95 19.87 19.52C19.87 22.62 21.93 23.31 21.93 23.31C21.93 23.31 21.37 15.69 26.05 13C26.05 18.67 32.24 20.04 32.24 26.74ZM27.72 22.9C27.72 22.9 27.22 25.15 23.22 26.15C21.56 26.56 20.55 28.24 20.97 29.9C21.38 31.55 23.06 32.56 24.72 32.15C29.72 30.9 27.72 22.9 27.72 22.9Z" fill="#FFFFFF" fill-opacity="1.000000" fill-rule="evenodd"/>
	</g>
</svg>
