<svg width="44.000000" height="44.000000" viewBox="0 0 44 44" fill="none" xmlns="http://www.w3.org/2000/svg" xmlns:xlink="http://www.w3.org/1999/xlink">
	<desc>
			Created with Pixso.
	</desc>
	<defs>
		<clipPath id="clip2002_11479">
			<rect id="Frame" rx="-0.500000" width="21.000000" height="21.000000" transform="translate(11.500000 11.500000)" fill="white" fill-opacity="0"/>
		</clipPath>
	</defs>
	<rect id="Rectangle 2" rx="14.000000" width="44.000000" height="44.000000" fill="#008EFF" fill-opacity="1.000000"/>
	<rect id="Frame" rx="-0.500000" width="21.000000" height="21.000000" transform="translate(11.500000 11.500000)" fill="#FFFFFF" fill-opacity="0"/>
	<g clip-path="url(#clip2002_11479)">
		<path id="Vector" d="M31.76 18.97L27.53 21.79C27.57 22.07 27.6 22.35 27.6 22.64C27.6 23.15 27.53 23.63 27.4 24.1L31.54 26.86C32.64 24.38 32.73 21.53 31.76 18.97Z" fill="#FFFFFF" fill-opacity="1.000000" fill-rule="nonzero"/>
		<path id="Vector" d="M27.12 20.4L31.18 17.7C30.3 16.09 29.01 14.73 27.43 13.78L24.75 17.81C25.79 18.39 26.63 19.3 27.12 20.4Z" fill="#FFFFFF" fill-opacity="1.000000" fill-rule="nonzero"/>
		<path id="Vector" d="M22.08 18.5C19.79 18.5 17.94 20.36 17.94 22.64C17.94 24.93 19.79 26.78 22.08 26.78C24.36 26.78 26.22 24.93 26.22 22.64C26.22 20.36 24.36 18.5 22.08 18.5ZM22.08 25.4C20.55 25.4 19.32 24.16 19.32 22.64C19.32 21.12 20.55 19.88 22.08 19.88C23.6 19.88 24.84 21.12 24.84 22.64C24.84 24.16 23.6 25.4 22.08 25.4Z" fill="#FFFFFF" fill-opacity="1.000000" fill-rule="nonzero"/>
		<path id="Vector" d="M24.4 27.65L27.1 31.7C28.65 30.83 29.96 29.58 30.89 28.08L26.86 25.4C26.29 26.38 25.43 27.17 24.4 27.65Z" fill="#FFFFFF" fill-opacity="1.000000" fill-rule="nonzero"/>
		<path id="Vector" d="M23.46 22.64C23.46 23.4 22.84 24.02 22.08 24.02C21.31 24.02 20.7 23.4 20.7 22.64C20.7 21.88 21.31 21.26 22.08 21.26C22.84 21.26 23.46 21.88 23.46 22.64Z" fill="#FFFFFF" fill-opacity="1.000000" fill-rule="evenodd"/>
		<path id="Vector" d="M21.12 28.08L18.31 32.29C20.72 33.23 23.43 33.23 25.84 32.29L23.03 28.08C22.4 28.19 21.75 28.19 21.12 28.08Z" fill="#FFFFFF" fill-opacity="1.000000" fill-rule="nonzero"/>
		<path id="Vector" d="M23.43 17.29L26.2 13.14C25.61 12.88 24.99 12.68 24.35 12.54C23.7 13.86 22.75 15.1 22.08 16.1C21.41 15.1 20.46 13.87 19.8 12.54C19.16 12.68 18.55 12.89 17.95 13.14L20.72 17.29C21.59 17.07 22.53 17.06 23.43 17.29Z" fill="#FFFFFF" fill-opacity="1.000000" fill-rule="nonzero"/>
		<path id="Vector" d="M17.29 25.4L13.26 28.08C14.19 29.58 15.5 30.83 17.05 31.7L19.75 27.65C18.72 27.17 17.86 26.38 17.29 25.4Z" fill="#FFFFFF" fill-opacity="1.000000" fill-rule="nonzero"/>
		<path id="Vector" d="M16.62 21.79L12.39 18.97C11.43 21.52 11.51 24.38 12.61 26.86L16.75 24.1C16.55 23.36 16.5 22.57 16.62 21.79Z" fill="#FFFFFF" fill-opacity="1.000000" fill-rule="nonzero"/>
		<path id="Vector" d="M19.41 17.81L16.72 13.78C15.15 14.73 13.85 16.09 12.98 17.7L17.03 20.4C17.52 19.3 18.36 18.39 19.41 17.81Z" fill="#FFFFFF" fill-opacity="1.000000" fill-rule="nonzero"/>
		<path id="Vector" d="M23.46 12.38C23.46 11.61 22.84 11 22.08 11C21.31 11 20.7 11.61 20.7 12.38C20.7 13.14 22.08 15.14 22.08 15.14C22.08 15.14 23.46 13.14 23.46 12.38Z" fill="#FFFFFF" fill-opacity="1.000000" fill-rule="nonzero"/>
	</g>
</svg>
