<svg width="131.083496" height="44.000000" viewBox="0 0 131.083 44" fill="none" xmlns="http://www.w3.org/2000/svg" xmlns:xlink="http://www.w3.org/1999/xlink">
	<defs>
		<clipPath id="clip7_986">
			<rect id="Frame" rx="-0.500000" width="130.083328" height="43.000000" transform="translate(0.500000 0.500000)" fill="white" fill-opacity="0"/>
		</clipPath>
	</defs>
	<g style="mix-blend-mode:normal">
		<rect id="Frame" rx="-0.500000" width="130.083328" height="43.000000" transform="translate(0.500000 0.500000)" fill="#FFFFFF" fill-opacity="0"/>
		<g clip-path="url(#clip7_986)">
			<mask id="mask7_988" mask-type="alpha" maskUnits="userSpaceOnUse" x="0.000000" y="0.000000" width="44.000000" height="44.000000">
				<path id="Vector" d="M0 0L44 0L44 44L0 44L0 0Z" fill="#000000" fill-opacity="1.000000" fill-rule="evenodd"/>
			</mask>
			<g mask="url(#mask7_988)">
				<path id="Subtract" d="M29.3335 0L14.6665 0C6.56641 0 0 6.56647 0 14.6667L0 29.3333C0 37.4335 6.56641 44 14.6665 44L29.3335 44C37.4336 44 44 37.4335 44 29.3333L44 14.6667C44 6.56647 37.4336 0 29.3335 0ZM32.9463 13.6888C31.418 12.4113 29.3301 11.7725 26.6836 11.7725L12.4473 11.7725L12.4473 34.2222L17.5806 34.2222L17.5806 26.488L26.6836 26.488C29.3301 26.488 31.418 25.8492 32.9463 24.5715C34.4751 23.2939 35.2393 21.5372 35.2393 19.3013L35.2393 18.9249C35.2393 16.7119 34.4751 14.9665 32.9463 13.6888ZM29.1133 21.2862C28.5205 21.7197 27.6646 21.9365 26.5469 21.9365L17.5806 21.9365L17.5806 16.324L26.5469 16.324C27.6646 16.324 28.5205 16.5521 29.1133 17.0085C29.7065 17.442 30.0034 18.0807 30.0034 18.9249L30.0034 19.3013C30.0034 20.1682 29.7065 20.83 29.1133 21.2862Z" clip-rule="evenodd" fill="#454D77" fill-opacity="1.000000" fill-rule="evenodd"/>
			</g>
			<path id="Vector" d="M57.14 17.23C59.88 17.23 61.6 18.65 61.6 20.95C61.6 23.24 59.88 24.66 57.14 24.66L55.07 24.66L55.07 27.5L52.7 27.5L52.7 17.23L57.14 17.23ZM57.01 22.73C58.46 22.73 59.19 22.07 59.19 20.95C59.19 19.82 58.46 19.16 57.01 19.16L55.07 19.16L55.07 22.73L57.01 22.73ZM70.45 27.5L69.54 25.3L64.77 25.3L63.86 27.5L61.43 27.5L66.01 17.23L68.35 17.23L72.94 27.5L70.45 27.5ZM65.54 23.49L68.79 23.49L67.16 19.56L65.54 23.49ZM83.1 27.5L80.55 27.5L78.57 24.64L78.45 24.64L76.38 24.64L76.38 27.5L74.01 27.5L74.01 17.23L78.45 17.23C81.2 17.23 82.91 18.65 82.91 20.95C82.91 22.49 82.13 23.62 80.8 24.2L83.1 27.5ZM80.51 20.95C80.51 19.82 79.77 19.16 78.32 19.16L76.38 19.16L76.38 22.74L78.32 22.74C79.77 22.74 80.51 22.07 80.51 20.95ZM92.46 27.5L91.56 25.3L86.79 25.3L85.88 27.5L83.44 27.5L88.02 17.23L90.37 17.23L94.96 27.5L92.46 27.5ZM87.55 23.49L90.81 23.49L89.18 19.56L87.55 23.49ZM96.02 27.5L96.02 17.23L100.69 17.23C104.05 17.23 106.35 19.25 106.35 22.36C106.35 25.47 104.05 27.5 100.69 27.5L96.02 27.5ZM98.4 25.54L100.57 25.54C102.61 25.54 103.94 24.33 103.94 22.36C103.94 20.4 102.61 19.18 100.57 19.18L98.4 19.18L98.4 25.54ZM108.14 27.5L108.14 17.23L110.52 17.23L110.52 27.5L108.14 27.5ZM116.33 27.67C114.7 27.67 113.06 27.19 112.15 26.48L112.95 24.69C113.82 25.32 115.11 25.76 116.34 25.76C117.75 25.76 118.32 25.3 118.32 24.66C118.32 22.74 112.35 24.06 112.35 20.25C112.35 18.5 113.76 17.05 116.68 17.05C117.97 17.05 119.29 17.36 120.24 17.96L119.51 19.77C118.56 19.22 117.57 18.96 116.66 18.96C115.26 18.96 114.71 19.49 114.71 20.13C114.71 22.02 120.68 20.72 120.68 24.49C120.68 26.2 119.26 27.67 116.33 27.67ZM124.67 25.59L130.25 25.59L130.25 27.5L122.31 27.5L122.31 17.23L130.06 17.23L130.06 19.14L124.67 19.14L124.67 21.36L129.43 21.36L129.43 23.21L124.67 23.21L124.67 25.59Z" fill="#454D77" fill-opacity="1.000000" fill-rule="nonzero"/>
		</g>
	</g>
</svg>
