<svg width="194.000000" height="30.000000" viewBox="0 0 194 30" fill="none" xmlns="http://www.w3.org/2000/svg" xmlns:xlink="http://www.w3.org/1999/xlink">
	<desc>
			Created with Pixso.
	</desc>
	<defs>
		<linearGradient x1="30.999990" y1="0.000000" x2="-0.000002" y2="29.999998" id="paint_linear_14_3436_0" gradientUnits="userSpaceOnUse">
			<stop stop-color="#E74640" stop-opacity="0.560784"/>
			<stop offset="1.000000" stop-color="#D55F59"/>
		</linearGradient>
	</defs>
	<rect id="main-footer-18 1" rx="10.000000" width="31.000000" height="30.000000" fill="url(#paint_linear_14_3436_0)" fill-opacity="1.000000"/>
	<path id="18+" d="M19.22 19.65C19.21 21.06 17.8 22.12 15.83 22.12C13.86 22.12 12.44 21.06 12.45 19.65C12.44 18.56 13.27 17.66 14.34 17.49L14.34 17.43C13.41 17.24 12.77 16.45 12.77 15.5C12.77 14.15 14.06 13.15 15.83 13.15C17.59 13.15 18.89 14.15 18.9 15.5C18.89 16.45 18.24 17.24 17.33 17.43L17.33 17.49C18.37 17.66 19.21 18.56 19.22 19.65ZM8.76 13.27L10.5 13.27L10.5 22L8.66 22L8.66 15.02L8.6 15.02L6.6 16.27L6.6 14.64L8.76 13.27ZM14.57 15.69C14.57 16.38 15.09 16.86 15.83 16.86C16.56 16.86 17.09 16.38 17.09 15.69C17.09 15.01 16.57 14.54 15.83 14.54C15.08 14.54 14.57 15.01 14.57 15.69ZM24.64 20.66L23.11 20.66L23.11 18.41L20.86 18.41L20.86 16.89L23.11 16.89L23.11 14.63L24.64 14.63L24.64 16.89L26.89 16.89L26.89 18.41L24.64 18.41L24.64 20.66ZM14.36 19.5C14.36 20.24 14.95 20.76 15.83 20.76C16.7 20.76 17.3 20.24 17.3 19.5C17.3 18.75 16.67 18.2 15.83 18.2C14.98 18.2 14.36 18.75 14.36 19.5Z" fill="#FFFFFF" fill-opacity="1.000000" fill-rule="evenodd"/>
	<path id="ИГРАЙТЕ ОТВЕТСТВЕННО" d="M80.45 13.71Q80.74 13.23 80.8 12.61L79.18 12.61Q79.12 13.23 78.79 13.47Q78.46 13.7 77.94 13.7Q77.32 13.7 77.04 13.48Q76.77 13.27 76.71 12.61L75.11 12.61Q75.16 13.25 75.41 13.72Q75.43 13.76 75.46 13.8Q75.71 14.21 76.26 14.45Q76.85 14.71 77.91 14.71Q78.94 14.71 79.55 14.44Q80.15 14.18 80.44 13.73Q80.44 13.72 80.45 13.71ZM107.56 22.02Q108 21.03 108 19.7Q108 18.37 107.56 17.38Q107.31 16.81 106.91 16.39Q106.61 16.07 106.22 15.84Q105.32 15.29 103.93 15.29Q102.53 15.29 101.62 15.84Q101.22 16.08 100.91 16.41Q100.52 16.82 100.28 17.37Q99.84 18.36 99.84 19.69Q99.84 21.02 100.28 22.01Q100.53 22.58 100.93 23.01Q101.24 23.33 101.62 23.56Q102.53 24.12 103.92 24.12Q105.32 24.12 106.22 23.56Q106.62 23.32 106.93 23Q107.32 22.58 107.56 22.02ZM192.93 22.02Q193.37 21.03 193.37 19.7Q193.37 18.37 192.93 17.38Q192.68 16.81 192.28 16.39Q191.98 16.07 191.59 15.84Q190.69 15.29 189.3 15.29Q187.9 15.29 186.99 15.84Q186.59 16.08 186.28 16.41Q185.89 16.82 185.65 17.37Q185.21 18.36 185.21 19.69Q185.21 21.02 185.65 22.01Q185.9 22.58 186.3 23.01Q186.6 23.33 186.99 23.56Q187.9 24.12 189.29 24.12Q190.69 24.12 191.59 23.56Q191.99 23.32 192.29 23Q192.69 22.58 192.93 22.02ZM140.41 17.11Q140.86 16.82 141.49 16.82Q141.96 16.82 142.45 16.99Q142.93 17.15 143.41 17.38L144 15.91Q143.99 15.9 143.97 15.89Q143.4 15.63 142.77 15.47Q142.13 15.31 141.49 15.31Q140.2 15.31 139.3 15.87Q138.97 16.08 138.7 16.35Q138.24 16.8 137.94 17.43Q137.48 18.43 137.48 19.72Q137.48 21.04 137.88 22.03Q138.14 22.66 138.58 23.11Q138.84 23.37 139.15 23.57Q140.01 24.12 141.33 24.12Q142.01 24.12 142.56 24.01Q143.12 23.9 143.68 23.67L143.68 22.15Q143.07 22.36 142.54 22.48Q142.13 22.58 141.72 22.6Q141.61 22.6 141.49 22.6Q140.66 22.6 140.17 22.19Q139.99 22.05 139.86 21.85Q139.35 21.1 139.35 19.74Q139.35 18.38 139.9 17.6Q140.11 17.29 140.41 17.11ZM70.24 21.96L70.86 24L72.82 24L69.78 15.39L67.56 15.39L64.54 24L66.5 24L67.12 21.96L70.24 21.96ZM43.71 15.43L42.08 15.43L42.08 24L44.26 24L48.23 17.43L48.28 17.43Q48.27 17.51 48.25 17.78Q48.23 18.05 48.21 18.41Q48.2 18.77 48.18 19.16Q48.17 19.55 48.17 19.88L48.17 24L49.79 24L49.79 15.43L47.62 15.43L43.66 21.93L43.62 21.93Q43.63 21.84 43.65 21.58Q43.66 21.32 43.67 20.97Q43.68 20.61 43.7 20.24Q43.71 19.87 43.71 19.57L43.71 15.43ZM57.36 16.93L57.36 15.43L51.95 15.43L51.95 24L53.76 24L53.76 16.93L57.36 16.93ZM63.84 16.14Q63.08 15.43 61.42 15.43L58.68 15.43L58.68 24L60.49 24L60.49 20.95L61.27 20.95Q62.52 20.95 63.25 20.55Q63.86 20.22 64.18 19.7Q64.24 19.6 64.29 19.5Q64.4 19.26 64.47 19.01Q64.6 18.58 64.6 18.1Q64.6 17.14 64.15 16.5Q64.01 16.31 63.84 16.14ZM75.53 15.43L73.9 15.43L73.9 24L76.08 24L80.06 17.43L80.1 17.43Q80.09 17.51 80.07 17.78Q80.06 18.05 80.04 18.41Q80.02 18.77 80.01 19.16Q79.99 19.55 79.99 19.88L79.99 24L81.61 24L81.61 15.43L79.44 15.43L75.48 21.93L75.45 21.93Q75.46 21.84 75.47 21.58Q75.48 21.32 75.49 20.97Q75.51 20.61 75.52 20.24Q75.53 19.87 75.53 19.57L75.53 15.43ZM85.26 24L87.07 24L87.07 16.94L89.4 16.94L89.4 15.43L82.94 15.43L82.94 16.94L85.26 16.94L85.26 24ZM90.72 24L95.65 24L95.65 22.5L92.53 22.5L92.53 20.29L95.44 20.29L95.44 18.8L92.53 18.8L92.53 16.91L95.65 16.91L95.65 15.43L90.72 15.43L90.72 24ZM110.91 24L112.72 24L112.72 16.94L115.05 16.94L115.05 15.43L108.58 15.43L108.58 16.94L110.91 16.94L110.91 24ZM121.62 15.91Q120.75 15.43 119.03 15.43L116.37 15.43L116.37 24L119.57 24Q121.03 24 121.87 23.34Q122.2 23.08 122.4 22.74Q122.71 22.22 122.71 21.51Q122.71 20.84 122.51 20.43Q122.34 20.08 122.06 19.88Q122.01 19.84 121.96 19.81Q121.61 19.59 121.18 19.51L121.18 19.45Q121.55 19.38 121.83 19.18Q122.02 19.04 122.16 18.84Q122.16 18.83 122.17 18.82Q122.5 18.32 122.5 17.6Q122.5 16.77 122.09 16.29Q121.9 16.06 121.62 15.91ZM124.43 24L129.36 24L129.36 22.5L126.24 22.5L126.24 20.29L129.14 20.29L129.14 18.8L126.24 18.8L126.24 16.91L129.36 16.91L129.36 15.43L124.43 15.43L124.43 24ZM132.64 24L134.45 24L134.45 16.94L136.78 16.94L136.78 15.43L130.31 15.43L130.31 16.94L132.64 16.94L132.64 24ZM146.99 24L148.8 24L148.8 16.94L151.13 16.94L151.13 15.43L144.66 15.43L144.66 16.94L146.99 16.94L146.99 24ZM157.71 15.91Q156.83 15.43 155.11 15.43L152.45 15.43L152.45 24L155.65 24Q157.12 24 157.96 23.34Q158.28 23.08 158.49 22.74Q158.8 22.22 158.8 21.51Q158.8 20.84 158.59 20.43Q158.42 20.08 158.14 19.88Q158.09 19.84 158.04 19.81Q157.7 19.59 157.26 19.51L157.26 19.45Q157.64 19.38 157.91 19.18Q158.1 19.04 158.24 18.84Q158.25 18.83 158.25 18.82Q158.58 18.32 158.58 17.6Q158.58 16.77 158.18 16.29Q157.99 16.06 157.71 15.91ZM160.52 24L165.45 24L165.45 22.5L162.33 22.5L162.33 20.29L165.23 20.29L165.23 18.8L162.33 18.8L162.33 16.91L165.45 16.91L165.45 15.43L160.52 15.43L160.52 24ZM172.44 24L174.25 24L174.25 15.43L172.44 15.43L172.44 18.79L169.05 18.79L169.05 15.43L167.24 15.43L167.24 24L169.05 24L169.05 20.3L172.44 20.3L172.44 24ZM181.62 24L183.43 24L183.43 15.43L181.62 15.43L181.62 18.79L178.23 18.79L178.23 15.43L176.42 15.43L176.42 24L178.23 24L178.23 20.3L181.62 20.3L181.62 24ZM69.03 17.92Q69.12 18.24 69.18 18.44L69.81 20.43L67.57 20.43L68.19 18.44Q68.24 18.31 68.32 17.99Q68.42 17.67 68.52 17.32Q68.62 16.96 68.68 16.72Q68.74 16.96 68.83 17.29Q68.93 17.61 69.03 17.92ZM102.27 21.82Q101.75 21.04 101.75 19.7Q101.75 18.34 102.27 17.58Q102.4 17.37 102.58 17.23Q103.08 16.81 103.93 16.81Q104.79 16.81 105.29 17.23Q105.46 17.38 105.59 17.58Q106.1 18.34 106.1 19.7Q106.1 21.04 105.59 21.82Q105.46 22.02 105.29 22.16Q104.79 22.59 103.92 22.59Q103.1 22.59 102.6 22.19Q102.41 22.03 102.27 21.82ZM187.63 21.82Q187.12 21.04 187.12 19.7Q187.12 18.34 187.63 17.58Q187.77 17.37 187.95 17.23Q188.45 16.81 189.3 16.81Q190.16 16.81 190.66 17.23Q190.83 17.38 190.96 17.58Q191.46 18.34 191.46 19.7Q191.46 21.04 190.96 21.82Q190.83 22.02 190.66 22.16Q190.16 22.59 189.29 22.59Q188.47 22.59 187.97 22.19Q187.78 22.03 187.63 21.82ZM60.49 16.91L61.32 16.91Q62.14 16.91 62.5 17.32Q62.76 17.63 62.76 18.16Q62.76 18.67 62.51 18.98Q62.42 19.08 62.31 19.16Q61.86 19.46 61.1 19.46L60.49 19.46L60.49 16.91ZM120.33 18.57Q120.03 18.82 119.24 18.82L118.18 18.82L118.18 16.91L119.14 16.91Q119.92 16.91 120.28 17.13Q120.4 17.2 120.48 17.31Q120.64 17.52 120.64 17.84Q120.64 18.2 120.47 18.43Q120.41 18.51 120.33 18.57ZM156.42 18.57Q156.11 18.82 155.32 18.82L154.26 18.82L154.26 16.91L155.22 16.91Q156 16.91 156.36 17.13Q156.49 17.2 156.57 17.31Q156.72 17.52 156.72 17.84Q156.72 18.2 156.55 18.43Q156.49 18.51 156.42 18.57ZM118.18 22.5L118.18 20.26L119.31 20.26Q120.17 20.26 120.5 20.56Q120.62 20.67 120.7 20.81Q120.83 21.03 120.83 21.33Q120.83 21.72 120.65 22Q120.59 22.09 120.5 22.18Q120.18 22.5 119.37 22.5L118.18 22.5ZM154.26 22.5L154.26 20.26L155.39 20.26Q156.25 20.26 156.58 20.56Q156.71 20.67 156.78 20.81Q156.91 21.03 156.91 21.33Q156.91 21.72 156.74 22Q156.67 22.09 156.59 22.18Q156.27 22.5 155.45 22.5L154.26 22.5Z" fill="#CB5753" fill-opacity="1.000000" fill-rule="evenodd"/>
</svg>
