<svg width="40.000000" height="40.000000" viewBox="0 0 40 40" fill="none" xmlns="http://www.w3.org/2000/svg" xmlns:xlink="http://www.w3.org/1999/xlink">
	<desc>
			Created with Pixso.
	</desc>
	<defs>
		<clipPath id="clip12_25869">
			<rect id="user-add 1" rx="-0.500000" width="15.000000" height="15.000000" transform="translate(12.500000 12.500000)" fill="white" fill-opacity="0"/>
		</clipPath>
	</defs>
	<rect id="Rectangle 60" rx="12.000000" width="40.000000" height="40.000000" fill="#008EFF" fill-opacity="0.150000"/>
	<rect id="user-add 1" rx="-0.500000" width="15.000000" height="15.000000" transform="translate(12.500000 12.500000)" fill="#FFFFFF" fill-opacity="0"/>
	<g clip-path="url(#clip12_25869)">
		<path id="Vector" d="M27.33 19.33L26 19.33L26 18C26 17.63 25.7 17.33 25.33 17.33C24.96 17.33 24.66 17.63 24.66 18L24.66 19.33L23.33 19.33C22.96 19.33 22.66 19.63 22.66 20C22.66 20.36 22.96 20.66 23.33 20.66L24.66 20.66L24.66 22C24.66 22.36 24.96 22.66 25.33 22.66C25.7 22.66 26 22.36 26 22L26 20.66L27.33 20.66C27.7 20.66 28 20.36 28 20C28 19.63 27.7 19.33 27.33 19.33Z" fill="#008EFF" fill-opacity="1.000000" fill-rule="nonzero"/>
		<path id="Vector" d="M22 16C22 18.2 20.2 20 18 20C15.79 20 14 18.2 14 16C14 13.79 15.79 12 18 12C20.2 12 22 13.79 22 16Z" fill="#008EFF" fill-opacity="1.000000" fill-rule="evenodd"/>
		<path id="Vector" d="M18 21.33C14.68 21.33 12 24.02 12 27.33C12 27.7 12.29 28 12.66 28L23.33 28C23.7 28 24 27.7 24 27.33C23.99 24.02 21.31 21.33 18 21.33Z" fill="#008EFF" fill-opacity="1.000000" fill-rule="nonzero"/>
	</g>
</svg>
