<svg width="48.000000" height="48.000000" viewBox="0 0 48 48" fill="none" xmlns="http://www.w3.org/2000/svg" xmlns:xlink="http://www.w3.org/1999/xlink">
	<desc>
			Created with Pixso.
	</desc>
	<defs>
		<clipPath id="clip12_25789">
			<rect id="alarm-clock 1" rx="-0.500000" width="19.000000" height="19.000000" transform="translate(14.500000 14.500000)" fill="white" fill-opacity="0"/>
		</clipPath>
	</defs>
	<rect id="Rectangle 36" rx="14.000000" width="48.000000" height="48.000000" fill="#16A58B" fill-opacity="1.000000"/>
	<rect id="alarm-clock 1" rx="-0.500000" width="19.000000" height="19.000000" transform="translate(14.500000 14.500000)" fill="#FFFFFF" fill-opacity="0"/>
	<g clip-path="url(#clip12_25789)">
		<path id="Vector" d="M34 17.75C34 17.97 33.91 18.18 33.75 18.33C33.59 18.49 33.38 18.58 33.16 18.58C32.94 18.58 32.73 18.49 32.57 18.33C32.42 18.18 32.33 17.97 32.33 17.75C32.32 17.45 32.25 17.17 32.13 16.9C32 16.64 31.83 16.4 31.61 16.21C31.4 16.01 31.14 15.86 30.87 15.77C30.59 15.68 30.3 15.64 30.01 15.66C29.79 15.66 29.57 15.57 29.42 15.42C29.26 15.26 29.17 15.05 29.17 14.83C29.17 14.61 29.26 14.4 29.42 14.24C29.57 14.08 29.79 14 30.01 14C30.52 13.97 31.03 14.06 31.5 14.23C31.98 14.41 32.42 14.68 32.79 15.03C33.16 15.38 33.46 15.8 33.66 16.27C33.87 16.73 33.98 17.24 34 17.75Z" fill="#FFFFFF" fill-opacity="1.000000" fill-rule="nonzero"/>
		<path id="Vector" d="M15.66 17.75C15.67 17.45 15.74 17.17 15.86 16.9C15.99 16.64 16.16 16.4 16.38 16.21C16.59 16.01 16.85 15.86 17.12 15.77C17.4 15.68 17.69 15.64 17.98 15.66C18.2 15.66 18.42 15.57 18.57 15.42C18.73 15.26 18.82 15.05 18.82 14.83C18.82 14.61 18.73 14.4 18.57 14.24C18.42 14.08 18.2 14 17.98 14C17.47 13.97 16.96 14.06 16.49 14.23C16.01 14.41 15.57 14.68 15.2 15.03C14.83 15.38 14.53 15.8 14.33 16.27C14.12 16.73 14.01 17.24 14 17.75C14 17.97 14.08 18.18 14.24 18.33C14.4 18.49 14.61 18.58 14.83 18.58C15.05 18.58 15.26 18.49 15.42 18.33C15.57 18.18 15.66 17.97 15.66 17.75Z" fill="#FFFFFF" fill-opacity="1.000000" fill-rule="nonzero"/>
		<path id="Vector" d="M30.93 30.81C32.03 29.54 32.76 27.98 33.04 26.32C33.31 24.66 33.13 22.95 32.5 21.39C31.86 19.83 30.82 18.47 29.46 17.47C28.11 16.47 26.51 15.85 24.83 15.7L24.83 14.83C24.83 14.61 24.74 14.4 24.58 14.24C24.43 14.08 24.22 14 24 14C23.77 14 23.56 14.08 23.41 14.24C23.25 14.4 23.16 14.61 23.16 14.83L23.16 15.7C21.48 15.85 19.88 16.47 18.53 17.47C17.17 18.47 16.12 19.83 15.49 21.39C14.86 22.95 14.68 24.66 14.95 26.32C15.23 27.98 15.96 29.54 17.06 30.81C16.63 31.02 16.26 31.36 16.01 31.78C15.77 32.2 15.64 32.68 15.66 33.16C15.66 33.38 15.75 33.59 15.91 33.75C16.06 33.91 16.27 34 16.5 34C16.72 34 16.93 33.91 17.08 33.75C17.24 33.59 17.33 33.38 17.33 33.16C17.32 32.9 17.41 32.66 17.59 32.46C17.76 32.27 18 32.16 18.25 32.14C18.31 32.13 18.37 32.11 18.42 32.09C20.02 33.32 21.98 34 24 34C26.02 34 27.98 33.32 29.58 32.09C29.63 32.11 29.68 32.13 29.73 32.14C29.99 32.16 30.23 32.27 30.4 32.46C30.57 32.65 30.67 32.9 30.66 33.16C30.66 33.38 30.75 33.59 30.91 33.75C31.06 33.91 31.27 34 31.5 34C31.72 34 31.93 33.91 32.08 33.75C32.24 33.59 32.33 33.38 32.33 33.16C32.35 32.68 32.22 32.2 31.98 31.78C31.73 31.36 31.36 31.02 30.93 30.81ZM27.08 27.08C26.93 27.24 26.72 27.33 26.5 27.33C26.27 27.33 26.06 27.24 25.91 27.08L23.41 24.58C23.25 24.43 23.16 24.22 23.16 24L23.16 19.83C23.16 19.61 23.25 19.4 23.41 19.24C23.56 19.08 23.77 19 24 19C24.22 19 24.43 19.08 24.58 19.24C24.74 19.4 24.83 19.61 24.83 19.83L24.83 23.65L27.08 25.91C27.24 26.06 27.33 26.27 27.33 26.5C27.33 26.72 27.24 26.93 27.08 27.08Z" fill="#FFFFFF" fill-opacity="1.000000" fill-rule="nonzero"/>
	</g>
</svg>
