<svg width="20.000000" height="20.000000" viewBox="0 0 20 20" fill="none" xmlns="http://www.w3.org/2000/svg" xmlns:xlink="http://www.w3.org/1999/xlink">
	<desc>
			Created with Pixso.
	</desc>
	<defs>
		<clipPath id="clip19_13265">
			<rect id="Frame" rx="-0.500000" width="19.000000" height="19.000000" transform="translate(0.500000 0.500000)" fill="white" fill-opacity="0"/>
		</clipPath>
	</defs>
	<rect id="Frame" rx="-0.500000" width="19.000000" height="19.000000" transform="translate(0.500000 0.500000)" fill="#FFFFFF" fill-opacity="0"/>
	<g clip-path="url(#clip19_13265)">
		<path id="Vector" d="M14.65 3.72L5.34 3.72C2.4 3.72 0 6.12 0 9.07L0 14.65C0 17.6 2.4 20 5.34 20L14.65 20C17.6 20 20 17.6 20 14.65L20 9.07C20 6.12 17.6 3.72 14.65 3.72ZM12.5 10.02C12.5 9.47 12.95 9.02 13.5 9.02C14.05 9.02 14.5 9.47 14.5 10.02C14.5 10.57 14.05 11.03 13.5 11.03C12.95 11.03 12.5 10.59 12.5 10.04L12.5 10.02ZM8.13 14.07C7.97 14.22 7.79 14.29 7.59 14.29C7.41 14.29 7.21 14.22 7.06 14.07L6.04 13.04L5.05 14.03C4.9 14.18 4.7 14.25 4.52 14.25C4.32 14.25 4.14 14.18 3.98 14.03C3.69 13.74 3.69 13.26 3.98 12.97L4.97 11.98L4.02 11.02C3.72 10.73 3.72 10.25 4.02 9.96C4.31 9.67 4.79 9.67 5.07 9.96L6.04 10.92L7.03 9.93C7.31 9.64 7.8 9.64 8.08 9.93C8.38 10.22 8.38 10.7 8.08 10.99L7.09 11.98L8.13 13.01C8.42 13.3 8.42 13.78 8.13 14.07ZM11.54 13C10.99 13 10.53 12.55 10.53 12C10.53 11.45 10.97 11 11.52 11L11.54 11C12.09 11 12.54 11.45 12.54 12C12.54 12.55 12.1 13 11.54 13ZM13.5 14.97C12.95 14.97 12.5 14.53 12.5 13.98L12.5 13.96C12.5 13.41 12.95 12.96 13.5 12.96C14.05 12.96 14.5 13.41 14.5 13.96C14.5 14.51 14.06 14.97 13.5 14.97ZM15.48 13C14.93 13 14.47 12.55 14.47 12C14.47 11.45 14.91 11 15.46 11L15.48 11C16.03 11 16.48 11.45 16.48 12C16.48 12.55 16.04 13 15.48 13Z" fill="#000000" fill-opacity="1.000000" fill-rule="nonzero"/>
		<path id="Vector" d="M11.77 0.7L11.76 1.65C11.75 2.53 11.02 3.26 10.13 3.26C9.98 3.26 9.89 3.36 9.89 3.49C9.89 3.62 9.99 3.72 10.12 3.72L8.51 3.72C8.5 3.65 8.49 3.57 8.49 3.49C8.49 2.59 9.22 1.86 10.11 1.86C10.26 1.86 10.36 1.76 10.36 1.63L10.37 0.69C10.38 0.3 10.69 0 11.07 0L11.08 0C11.47 0 11.77 0.32 11.77 0.7Z" fill="#000000" fill-opacity="1.000000" fill-rule="nonzero"/>
		<path id="Vector" d="M14.65 3.72L5.34 3.72C2.4 3.72 0 6.12 0 9.07L0 14.65C0 17.6 2.4 20 5.34 20L14.65 20C17.6 20 20 17.6 20 14.65L20 9.07C20 6.12 17.6 3.72 14.65 3.72ZM12.5 10.02C12.5 9.47 12.95 9.02 13.5 9.02C14.05 9.02 14.5 9.47 14.5 10.02C14.5 10.57 14.05 11.03 13.5 11.03C12.95 11.03 12.5 10.59 12.5 10.04L12.5 10.02ZM8.13 14.07C7.97 14.22 7.79 14.29 7.59 14.29C7.41 14.29 7.21 14.22 7.06 14.07L6.04 13.04L5.05 14.03C4.9 14.18 4.7 14.25 4.52 14.25C4.32 14.25 4.14 14.18 3.98 14.03C3.69 13.74 3.69 13.26 3.98 12.97L4.97 11.98L4.02 11.02C3.72 10.73 3.72 10.25 4.02 9.96C4.31 9.67 4.79 9.67 5.07 9.96L6.04 10.92L7.03 9.93C7.31 9.64 7.8 9.64 8.08 9.93C8.38 10.22 8.38 10.7 8.08 10.99L7.09 11.98L8.13 13.01C8.42 13.3 8.42 13.78 8.13 14.07ZM11.54 13C10.99 13 10.53 12.55 10.53 12C10.53 11.45 10.97 11 11.52 11L11.54 11C12.09 11 12.54 11.45 12.54 12C12.54 12.55 12.1 13 11.54 13ZM13.5 14.97C12.95 14.97 12.5 14.53 12.5 13.98L12.5 13.96C12.5 13.41 12.95 12.96 13.5 12.96C14.05 12.96 14.5 13.41 14.5 13.96C14.5 14.51 14.06 14.97 13.5 14.97ZM15.48 13C14.93 13 14.47 12.55 14.47 12C14.47 11.45 14.91 11 15.46 11L15.48 11C16.03 11 16.48 11.45 16.48 12C16.48 12.55 16.04 13 15.48 13Z" fill="#7F89C1" fill-opacity="1.000000" fill-rule="nonzero"/>
		<path id="Vector" d="M11.77 0.7L11.76 1.65C11.75 2.53 11.02 3.26 10.13 3.26C9.98 3.26 9.89 3.36 9.89 3.49C9.89 3.62 9.99 3.72 10.12 3.72L8.51 3.72C8.5 3.65 8.49 3.57 8.49 3.49C8.49 2.59 9.22 1.86 10.11 1.86C10.26 1.86 10.36 1.76 10.36 1.63L10.37 0.69C10.38 0.3 10.69 0 11.07 0L11.08 0C11.47 0 11.77 0.32 11.77 0.7Z" fill="#7F89C1" fill-opacity="1.000000" fill-rule="nonzero"/>
	</g>
</svg>
