<svg width="60.000000" height="60.000000" viewBox="0 0 60 60" fill="none" xmlns="http://www.w3.org/2000/svg" xmlns:xlink="http://www.w3.org/1999/xlink">
	<desc>
			Created with Pixso.
	</desc>
	<defs/>
	<rect rx="12.000000" width="60.000000" height="60.000000" fill="#008EFF" fill-opacity="1.000000"/>
	<g opacity="0.000000"/>
	<path d="M40.15 22.4C39.54 19.33 37.26 17.98 34.09 17.98L21.65 17.98C17.91 17.98 15.42 19.85 15.42 24.22L15.42 31.51C15.42 34.66 16.71 36.5 18.83 37.29C19.14 37.4 19.48 37.5 19.84 37.56C20.4 37.69 21.01 37.74 21.65 37.74L34.1 37.74C37.84 37.74 40.34 35.87 40.34 31.51L40.34 24.22C40.34 23.55 40.28 22.95 40.15 22.4ZM20.83 30C20.83 30.58 20.35 31.06 19.77 31.06C19.18 31.06 18.7 30.58 18.7 30L18.7 25.75C18.7 25.16 19.18 24.68 19.77 24.68C20.35 24.68 20.83 25.16 20.83 25.75L20.83 30ZM27.87 31.61C25.8 31.61 24.13 29.94 24.13 27.87C24.13 25.8 25.8 24.13 27.87 24.13C29.94 24.13 31.61 25.8 31.61 27.87C31.61 29.94 29.94 31.61 27.87 31.61ZM37.02 30C37.02 30.58 36.54 31.06 35.96 31.06C35.38 31.06 34.9 30.58 34.9 30L34.9 25.75C34.9 25.16 35.38 24.68 35.96 24.68C36.54 24.68 37.02 25.16 37.02 25.75L37.02 30Z" fill="#FFFFFF" fill-opacity="1.000000" fill-rule="nonzero"/>
	<path d="M44.59 28.47L44.59 35.76C44.59 40.12 42.09 42.01 38.34 42.01L25.9 42.01C24.84 42.01 23.89 41.85 23.07 41.54C22.4 41.3 21.82 40.95 21.35 40.49C21.1 40.25 21.3 39.87 21.65 39.87L34.09 39.87C39.33 39.87 42.45 36.75 42.45 31.53L42.45 24.22C42.45 23.88 42.83 23.66 43.07 23.92C44.03 24.94 44.59 26.43 44.59 28.47Z" fill="#FFFFFF" fill-opacity="1.000000" fill-rule="nonzero"/>
</svg>
