<svg width="16.000000" height="16.000000" viewBox="0 0 16 16" fill="none" xmlns="http://www.w3.org/2000/svg" xmlns:xlink="http://www.w3.org/1999/xlink">
	<desc>
			Created with Pixso.
	</desc>
	<defs>
		<clipPath id="clip9_4122">
			<rect id="Frame" rx="-0.500000" width="15.000000" height="15.000000" transform="translate(0.500000 0.500000)" fill="white" fill-opacity="0"/>
		</clipPath>
	</defs>
	<rect id="Frame" rx="-0.500000" width="15.000000" height="15.000000" transform="translate(0.500000 0.500000)" fill="#FFFFFF" fill-opacity="0"/>
	<g clip-path="url(#clip9_4122)">
		<path id="Vector" d="M12.85 3.85C13.04 3.65 13.04 3.34 12.85 3.14C12.65 2.95 12.34 2.95 12.14 3.14L11.14 4.14L10.85 4.43L10.2 3.79C9.81 3.4 9.18 3.4 8.79 3.79L8.29 4.29C8.25 4.33 8.22 4.37 8.18 4.41C7.5 4.15 6.77 4 6 4C2.69 4 0 6.69 0 10C0 13.3 2.69 16 6 16C9.3 16 12 13.3 12 10C12 9.22 11.84 8.48 11.58 7.81C11.62 7.77 11.66 7.74 11.7 7.7L12.2 7.2C12.59 6.81 12.59 6.18 12.2 5.79L11.56 5.14L11.85 4.85L12.85 3.85ZM6 7C4.34 7 3 8.34 3 10C3 10.27 2.77 10.5 2.5 10.5C2.22 10.5 2 10.27 2 10C2 7.79 3.79 6 6 6C6.27 6 6.5 6.22 6.5 6.5C6.5 6.77 6.27 7 6 7Z" fill="#FFFFFF" fill-opacity="1.000000" fill-rule="nonzero"/>
		<g opacity="0.450000">
			<path id="Vector" d="M14.34 4.65C14.14 4.46 13.83 4.46 13.63 4.65C13.44 4.85 13.44 5.16 13.63 5.36L14.13 5.86C14.23 5.96 14.36 6 14.49 6C14.61 6 14.74 5.96 14.84 5.86C15.04 5.66 15.04 5.35 14.84 5.15L14.34 4.65Z" fill="#FFFFFF" fill-opacity="1.000000" fill-rule="nonzero"/>
		</g>
		<g opacity="0.450000">
			<path id="Vector" d="M10.63 2.36C10.73 2.46 10.86 2.5 10.99 2.5C11.11 2.5 11.24 2.46 11.34 2.36C11.54 2.16 11.54 1.85 11.34 1.65L10.84 1.15C10.64 0.96 10.33 0.96 10.13 1.15C9.94 1.35 9.94 1.66 10.13 1.86L10.63 2.36Z" fill="#FFFFFF" fill-opacity="1.000000" fill-rule="nonzero"/>
		</g>
		<g opacity="0.450000">
			<path id="Vector" d="M12.5 2C12.77 2 13 1.77 13 1.5L13 0.5C13 0.22 12.77 0 12.5 0C12.22 0 12 0.22 12 0.5L12 1.5C12 1.77 12.22 2 12.5 2Z" fill="#FFFFFF" fill-opacity="1.000000" fill-rule="nonzero"/>
		</g>
		<g opacity="0.450000">
			<path id="Vector" d="M15.5 3.01L14.5 3.01C14.22 3.01 14 3.24 14 3.51C14 3.79 14.22 4.01 14.5 4.01L15.5 4.01C15.77 4.01 16 3.79 16 3.51C16 3.24 15.77 3.01 15.5 3.01Z" fill="#FFFFFF" fill-opacity="1.000000" fill-rule="nonzero"/>
		</g>
		<g opacity="0.450000">
			<path id="Vector" d="M13.65 2.36C13.75 2.46 13.88 2.5 14 2.5C14.13 2.5 14.26 2.46 14.36 2.36L15.36 1.36C15.55 1.16 15.55 0.85 15.36 0.65C15.16 0.46 14.85 0.46 14.65 0.65L13.65 1.65C13.46 1.85 13.46 2.16 13.65 2.36Z" fill="#FFFFFF" fill-opacity="1.000000" fill-rule="nonzero"/>
		</g>
	</g>
</svg>
