<svg width="38.000000" height="38.000000" viewBox="0 0 38 38" fill="none" xmlns="http://www.w3.org/2000/svg" xmlns:xlink="http://www.w3.org/1999/xlink">
	<desc>
			Created with Pixso.
	</desc>
	<defs>
		<clipPath id="clip19_11671">
			<rect id="Frame" rx="-0.500000" width="18.000000" height="18.000000" transform="translate(10.000000 10.000000)" fill="white" fill-opacity="0"/>
		</clipPath>
	</defs>
	<rect id="Rectangle 2" rx="14.000000" width="38.000000" height="38.000000" fill="#171B2D" fill-opacity="0.450000"/>
	<rect id="Rectangle 2" x="0.500000" y="0.500000" rx="14.000000" width="37.000000" height="37.000000" stroke="#171B2D" stroke-opacity="1.000000" stroke-width="1.000000"/>
	<rect id="Frame" rx="-0.500000" width="18.000000" height="18.000000" transform="translate(10.000000 10.000000)" fill="#FFFFFF" fill-opacity="0"/>
	<g clip-path="url(#clip19_11671)">
		<path id="Vector" d="M28.31 15.7L27.9 15.29C27.66 15.05 27.27 15.05 27.02 15.29C26.78 15.53 26.78 15.92 27.02 16.16L27.44 16.58C27.56 16.7 27.72 16.76 27.88 16.76C28.03 16.76 28.19 16.7 28.31 16.58C28.56 16.34 28.56 15.94 28.31 15.7Z" fill="#7F89C1" fill-opacity="1.000000" fill-rule="nonzero"/>
		<path id="Vector" d="M25.84 15.29C25.59 15.05 25.2 15.05 24.96 15.29L24.55 15.7C24.3 15.94 24.3 16.34 24.55 16.58C24.67 16.7 24.83 16.76 24.98 16.76C25.14 16.76 25.3 16.7 25.42 16.58L25.84 16.16C26.08 15.92 26.08 15.53 25.84 15.29Z" fill="#7F89C1" fill-opacity="1.000000" fill-rule="nonzero"/>
		<path id="Vector" d="M28.31 12.81C28.19 12.69 28.03 12.63 27.88 12.63C27.72 12.63 27.56 12.69 27.44 12.81L27.02 13.22C26.78 13.46 26.78 13.86 27.02 14.1C27.27 14.34 27.66 14.34 27.9 14.1L28.31 13.69C28.56 13.44 28.56 13.05 28.31 12.81Z" fill="#7F89C1" fill-opacity="1.000000" fill-rule="nonzero"/>
		<path id="Vector" d="M25.88 13.37L25.01 12.5C24.28 11.77 23.1 11.77 22.38 12.5L22.09 12.79L21.21 11.91C20.97 11.67 20.58 11.67 20.34 11.91L18.68 13.57C17.88 13.23 17 13.05 16.1 13.05C14.33 13.05 12.67 13.73 11.43 14.98C8.85 17.56 8.85 21.75 11.43 24.33C12.67 25.57 14.33 26.26 16.1 26.26C17.87 26.26 19.53 25.57 20.77 24.33C22.02 23.08 22.71 21.42 22.71 19.65C22.71 18.75 22.53 17.88 22.19 17.07L23.84 15.42C24.08 15.18 24.08 14.78 23.84 14.54L22.96 13.67L23.26 13.37C23.5 13.13 23.89 13.13 24.13 13.37L25.01 14.25C25.13 14.37 25.29 14.43 25.45 14.43C25.61 14.43 25.76 14.37 25.88 14.25C26.13 14.01 26.13 13.62 25.88 13.37ZM19.02 22.57C18.24 23.35 17.21 23.78 16.1 23.78C15 23.78 13.97 23.35 13.18 22.57C12.94 22.33 12.94 21.94 13.18 21.69C13.43 21.45 13.82 21.45 14.06 21.69C14.61 22.24 15.33 22.54 16.1 22.54C16.87 22.54 17.6 22.24 18.15 21.69C18.39 21.45 18.78 21.45 19.02 21.69C19.27 21.93 19.27 22.33 19.02 22.57Z" fill="#7F89C1" fill-opacity="1.000000" fill-rule="nonzero"/>
	</g>
</svg>
