<svg width="20.000000" height="20.000000" viewBox="0 0 20 20" fill="none" xmlns="http://www.w3.org/2000/svg" xmlns:xlink="http://www.w3.org/1999/xlink">
	<desc>
			Created with Pixso.
	</desc>
	<defs/>
	<path d="M14.16 4.13L14.16 10.06C14.16 11.72 12.99 12.36 11.54 11.5L10.44 10.83C10.19 10.68 9.79 10.68 9.54 10.83L8.44 11.5C7 12.36 5.83 11.72 5.83 10.06L5.83 4.15C5.84 2.5 6.67 1.66 8.33 1.66L11.66 1.66C13.31 1.66 14.14 2.49 14.16 4.13Z" fill="#7F89C1" fill-opacity="1.000000" fill-rule="nonzero"/>
	<path d="M18.33 9.91L18.33 12.44C18.33 16.65 16.66 18.33 12.5 18.33L7.5 18.33C3.33 18.33 1.66 16.65 1.66 12.44L1.66 9.91C1.66 7.67 2.14 6.15 3.2 5.21C3.75 4.75 4.58 5.15 4.58 5.86L4.58 10.06C4.58 11.3 5.09 12.3 5.97 12.8C6.86 13.31 8 13.22 9.1 12.56L10 12.02L10.9 12.56C11.52 12.94 12.16 13.13 12.76 13.13C13.21 13.13 13.64 13.02 14.02 12.8C14.9 12.3 15.41 11.3 15.41 10.06L15.41 5.85C15.41 5.15 16.25 4.75 16.79 5.21C17.85 6.15 18.33 7.67 18.33 9.91Z" fill="#7F89C1" fill-opacity="1.000000" fill-rule="nonzero"/>
	<g opacity="0.000000"/>
</svg>
