<svg width="16.000000" height="16.000000" viewBox="0 0 16 16" fill="none" xmlns="http://www.w3.org/2000/svg" xmlns:xlink="http://www.w3.org/1999/xlink">
	<desc>
			Created with Pixso.
	</desc>
	<defs/>
	<path id="↳ Icon Color" d="M10.99 3.51C11.97 4.17 12.41 5.44 11.99 6.6L6.98 4.79C7.4 3.62 8.56 2.94 9.74 3.05L10.45 1.1C10.58 0.76 10.96 0.58 11.31 0.7C11.65 0.83 11.83 1.21 11.71 1.56L10.99 3.51ZM8.86 13.78C8.19 13.65 7.48 13.45 6.75 13.18C5.95 12.89 5.23 12.56 4.58 12.2L5.01 11.16C5.04 11.1 5.02 11.03 4.98 10.98C4.92 10.91 4.81 10.91 4.74 10.97L3.88 11.77C3.31 11.4 2.82 10.99 2.4 10.54C3.31 8.05 4.55 6.26 6.12 5.18L12.39 7.45C12.9 9.29 12.7 11.45 11.79 13.95C11.13 14.02 10.43 14.01 9.69 13.92L9.69 12.42C9.69 12.33 9.62 12.25 9.53 12.25C9.46 12.25 9.39 12.3 9.37 12.36L8.86 13.78Z" fill="#7F89C1" fill-opacity="1.000000" fill-rule="nonzero"/>
</svg>
