<svg width="10.000000" height="12.000000" viewBox="0 0 10 12" fill="none" xmlns="http://www.w3.org/2000/svg" xmlns:xlink="http://www.w3.org/1999/xlink">
	<defs/>
	<path id="↳ Icon Color" d="M9.97 8.3C9.99 8.42 10 8.54 10 8.66C10 10.5 7.76 12 5 12C2.23 12 0 10.5 0 8.66C0 8.54 0 8.42 0.02 8.3C1.17 9.74 2.97 10.66 5 10.66C7.02 10.66 8.82 9.74 9.96 8.31L9.97 8.3ZM9.97 5.63C9.99 5.75 10 5.87 10 6C10 7.84 7.76 9.33 5 9.33C2.23 9.33 0 7.84 0 6C0 5.87 0 5.75 0.02 5.63C1.17 7.07 2.97 8 5 8C7.02 8 8.82 7.07 9.96 5.64L9.97 5.63ZM5 0C7.76 0 10 1.49 10 3.33C10 5.17 7.76 6.66 5 6.66C2.23 6.66 0 5.17 0 3.33C0 1.49 2.23 0 5 0Z" fill="#FFFFFF" fill-opacity="1.000000" fill-rule="nonzero"/>
</svg>
