<svg width="12.000000" height="13.000000" viewBox="0 0 12 13" fill="none" xmlns="http://www.w3.org/2000/svg" xmlns:xlink="http://www.w3.org/1999/xlink">
	<desc>
			Created with Pixso.
	</desc>
	<defs/>
	<path id="↳ Icon Color" d="M11.96 8.99C11.98 9.12 12 9.25 12 9.38C12 11.38 9.31 13 6 13C2.68 13 0 11.38 0 9.38C0 9.25 0.01 9.12 0.03 8.99C1.4 10.55 3.56 11.55 6 11.55C8.42 11.55 10.58 10.55 11.95 9L11.96 8.99ZM11.96 6.1C11.98 6.23 12 6.36 12 6.5C12 8.49 9.31 10.11 6 10.11C2.68 10.11 0 8.49 0 6.5C0 6.36 0.01 6.23 0.03 6.1C1.4 7.66 3.56 8.66 6 8.66C8.42 8.66 10.58 7.66 11.95 6.11L11.96 6.1ZM6 0C9.31 0 12 1.61 12 3.61C12 5.6 9.31 7.22 6 7.22C2.68 7.22 0 5.6 0 3.61C0 1.61 2.68 0 6 0Z" fill="#FFA538" fill-opacity="1.000000" fill-rule="nonzero"/>
</svg>
