<svg width="60.000000" height="60.000000" viewBox="0 0 60 60" fill="none" xmlns="http://www.w3.org/2000/svg" xmlns:xlink="http://www.w3.org/1999/xlink">
	<desc>
			Created with Pixso.
	</desc>
	<defs>
		<clipPath id="clip12_25905">
			<rect id="circle-star 1" rx="-0.500000" width="23.000000" height="23.000000" transform="translate(18.500000 18.500000)" fill="white" fill-opacity="0"/>
		</clipPath>
	</defs>
	<rect id="Rectangle 36" rx="18.000000" width="60.000000" height="60.000000" fill="#FFA538" fill-opacity="1.000000"/>
	<rect id="circle-star 1" rx="-0.500000" width="23.000000" height="23.000000" transform="translate(18.500000 18.500000)" fill="#FFFFFF" fill-opacity="0"/>
	<g clip-path="url(#clip12_25905)">
		<path id="↳ Icon Color" d="M40.27 34.6C40.31 34.84 40.33 35.08 40.33 35.33C40.33 39.01 35.55 42 29.66 42C23.77 42 19 39.01 19 35.33C19 35.08 19.02 34.84 19.06 34.6C21.49 37.48 25.34 39.33 29.66 39.33C33.98 39.33 37.82 37.48 40.25 34.62L40.27 34.6ZM40.27 29.27C40.31 29.51 40.33 29.75 40.33 30C40.33 33.68 35.55 36.66 29.66 36.66C23.77 36.66 19 33.68 19 30C19 29.75 19.02 29.51 19.06 29.27C21.49 32.14 25.34 34 29.66 34C33.98 34 37.82 32.15 40.25 29.29L40.27 29.27ZM29.66 18C35.55 18 40.33 20.98 40.33 24.66C40.33 28.34 35.55 31.33 29.66 31.33C23.77 31.33 19 28.34 19 24.66C19 20.98 23.77 18 29.66 18Z" fill="#764B06" fill-opacity="1.000000" fill-rule="nonzero"/>
	</g>
</svg>
