<svg width="13.000000" height="13.000000" viewBox="0 0 13 13" fill="none" xmlns="http://www.w3.org/2000/svg" xmlns:xlink="http://www.w3.org/1999/xlink">
	<path id="Vector" d="M2.6 10.39L2.6 11.05C2.6 12.12 3.47 13 4.55 13L11.05 13C12.12 13 13 12.12 13 11.05L13 4.55C13 3.47 12.12 2.6 11.05 2.6L10.39 2.6L10.39 1.94C10.39 0.87 9.52 0 8.44 0L1.94 0C0.87 0 0 0.87 0 1.94L0 8.44C0 9.52 0.87 10.39 1.94 10.39L2.6 10.39ZM3.89 10.39L3.89 11.05C3.89 11.4 4.19 11.7 4.55 11.7L11.05 11.7C11.4 11.7 11.7 11.4 11.7 11.05L11.7 4.55C11.7 4.19 11.4 3.89 11.05 3.89L10.39 3.89L10.39 8.44C10.39 9.52 9.52 10.39 8.44 10.39L3.89 10.39Z" fill="#7F89C1" fill-opacity="1.000000" fill-rule="evenodd"/>
</svg>
