<svg width="18.000000" height="18.000000" viewBox="0 0 18 18" fill="none" xmlns="http://www.w3.org/2000/svg" xmlns:xlink="http://www.w3.org/1999/xlink">
	<defs>
		<clipPath id="clip19_13372">
			<rect id="dice-alt 1" rx="-0.500000" width="17.000000" height="17.000000" transform="translate(0.500000 0.500000)" fill="white" fill-opacity="0"/>
		</clipPath>
	</defs>
	<rect id="dice-alt 1" rx="-0.500000" width="17.000000" height="17.000000" transform="translate(0.500000 0.500000)" fill="#FFFFFF" fill-opacity="0"/>
	<g clip-path="url(#clip19_13372)">
		<path id="Vector" d="M14.25 6.75L10.5 6.75C9.5 6.75 8.55 7.14 7.84 7.84C7.14 8.55 6.75 9.5 6.75 10.5L6.75 14.25C6.75 15.24 7.14 16.19 7.84 16.9C8.55 17.6 9.5 17.99 10.5 18L14.25 18C15.24 17.99 16.19 17.6 16.9 16.9C17.6 16.19 17.99 15.24 18 14.25L18 10.5C17.99 9.5 17.6 8.55 16.9 7.84C16.19 7.14 15.24 6.75 14.25 6.75ZM10.5 11.25C10.35 11.25 10.2 11.2 10.08 11.12C9.95 11.04 9.86 10.92 9.8 10.78C9.75 10.65 9.73 10.49 9.76 10.35C9.79 10.2 9.86 10.07 9.96 9.96C10.07 9.86 10.2 9.79 10.35 9.76C10.49 9.73 10.64 9.75 10.78 9.8C10.92 9.86 11.04 9.95 11.12 10.08C11.2 10.2 11.25 10.35 11.25 10.5C11.25 10.69 11.17 10.88 11.03 11.03C10.88 11.17 10.69 11.25 10.5 11.25ZM14.25 15C14.1 15 13.95 14.95 13.83 14.87C13.71 14.79 13.61 14.67 13.55 14.53C13.5 14.4 13.48 14.24 13.51 14.1C13.54 13.95 13.61 13.82 13.71 13.71C13.82 13.61 13.95 13.54 14.1 13.51C14.24 13.48 14.39 13.5 14.53 13.55C14.67 13.61 14.79 13.71 14.87 13.83C14.95 13.95 15 14.1 15 14.25C15 14.44 14.92 14.63 14.78 14.78C14.63 14.92 14.44 15 14.25 15ZM11.7 3.75L9.05 1.09C8.34 0.39 7.39 0 6.4 0C5.4 0 4.45 0.39 3.75 1.09L1.09 3.75C0.39 4.45 0 5.4 0 6.4C0 7.39 0.39 8.34 1.09 9.05L3.75 11.7C4.16 12.12 4.68 12.43 5.25 12.61L5.25 10.5C5.25 9.1 5.8 7.77 6.78 6.78C7.77 5.8 9.1 5.25 10.5 5.25L12.62 5.25C12.43 4.68 12.12 4.16 11.7 3.75ZM3.75 7.5C3.6 7.5 3.45 7.45 3.33 7.37C3.2 7.29 3.11 7.17 3.05 7.03C3 6.89 2.98 6.74 3.01 6.6C3.04 6.45 3.11 6.32 3.21 6.21C3.32 6.11 3.45 6.04 3.6 6.01C3.74 5.98 3.89 6 4.03 6.05C4.17 6.11 4.29 6.2 4.37 6.33C4.45 6.45 4.5 6.6 4.5 6.75C4.5 6.94 4.42 7.13 4.28 7.28C4.13 7.42 3.94 7.5 3.75 7.5ZM6.75 4.5C6.6 4.5 6.45 4.45 6.33 4.37C6.2 4.29 6.11 4.17 6.05 4.03C6 3.89 5.98 3.74 6.01 3.6C6.04 3.45 6.11 3.32 6.21 3.21C6.32 3.11 6.45 3.04 6.6 3.01C6.74 2.98 6.89 3 7.03 3.05C7.17 3.11 7.29 3.2 7.37 3.33C7.45 3.45 7.5 3.6 7.5 3.75C7.5 3.94 7.42 4.13 7.28 4.28C7.13 4.42 6.94 4.5 6.75 4.5Z" fill="#7F89C1" fill-opacity="1.000000" fill-rule="nonzero"/>
	</g>
</svg>
