<svg width="44.000000" height="44.000000" viewBox="0 0 44 44" fill="none" xmlns="http://www.w3.org/2000/svg" xmlns:xlink="http://www.w3.org/1999/xlink">
	<desc>
			Created with Pixso.
	</desc>
	<defs>
		<clipPath id="clip8_2461">
			<rect id="dice-alt 1" rx="-0.500000" width="21.000000" height="21.000000" transform="translate(11.500000 11.500000)" fill="white" fill-opacity="0"/>
		</clipPath>
	</defs>
	<rect id="Rectangle 2" rx="14.000000" width="44.000000" height="44.000000" fill="#008EFF" fill-opacity="1.000000"/>
	<rect id="dice-alt 1" rx="-0.500000" width="21.000000" height="21.000000" transform="translate(11.500000 11.500000)" fill="#FFFFFF" fill-opacity="0"/>
	<g clip-path="url(#clip8_2461)">
		<path id="Vector" d="M28.41 19.25L23.83 19.25C22.61 19.25 21.45 19.73 20.59 20.59C19.73 21.45 19.25 22.61 19.25 23.83L19.25 28.41C19.25 29.63 19.73 30.79 20.59 31.65C21.45 32.51 22.61 32.99 23.83 33L28.41 33C29.63 32.99 30.79 32.51 31.65 31.65C32.51 30.79 32.99 29.63 33 28.41L33 23.83C32.99 22.61 32.51 21.45 31.65 20.59C30.79 19.73 29.63 19.25 28.41 19.25ZM23.83 24.75C23.65 24.75 23.47 24.69 23.32 24.59C23.17 24.49 23.05 24.35 22.98 24.18C22.91 24.01 22.89 23.83 22.93 23.65C22.96 23.47 23.05 23.31 23.18 23.18C23.31 23.05 23.47 22.96 23.65 22.93C23.83 22.89 24.01 22.91 24.18 22.98C24.35 23.05 24.49 23.17 24.59 23.32C24.69 23.47 24.75 23.65 24.75 23.83C24.75 24.07 24.65 24.3 24.48 24.48C24.3 24.65 24.07 24.75 23.83 24.75ZM28.41 29.33C28.23 29.33 28.05 29.27 27.9 29.17C27.75 29.07 27.63 28.93 27.56 28.76C27.5 28.6 27.48 28.41 27.51 28.23C27.55 28.06 27.64 27.89 27.76 27.76C27.89 27.64 28.05 27.55 28.23 27.51C28.41 27.48 28.59 27.5 28.76 27.56C28.93 27.63 29.07 27.75 29.17 27.9C29.27 28.05 29.33 28.23 29.33 28.41C29.33 28.65 29.23 28.89 29.06 29.06C28.89 29.23 28.66 29.33 28.41 29.33ZM25.29 15.58L22.06 12.34C21.2 11.48 20.03 11 18.82 11C17.6 11 16.44 11.48 15.58 12.34L12.34 15.58C11.48 16.44 11 17.6 11 18.82C11 20.03 11.48 21.2 12.34 22.06L15.58 25.3C16.09 25.81 16.72 26.19 17.41 26.42L17.41 23.83C17.41 22.13 18.09 20.5 19.29 19.29C20.5 18.09 22.13 17.41 23.83 17.41L26.42 17.41C26.2 16.72 25.81 16.09 25.29 15.58ZM15.58 20.16C15.4 20.16 15.22 20.11 15.07 20.01C14.92 19.91 14.8 19.76 14.73 19.6C14.66 19.43 14.64 19.24 14.68 19.07C14.71 18.89 14.8 18.73 14.93 18.6C15.06 18.47 15.22 18.38 15.4 18.35C15.58 18.31 15.76 18.33 15.93 18.4C16.1 18.47 16.24 18.59 16.34 18.74C16.44 18.89 16.5 19.06 16.5 19.25C16.5 19.49 16.4 19.72 16.23 19.89C16.05 20.07 15.82 20.16 15.58 20.16ZM19.25 16.5C19.06 16.5 18.89 16.44 18.74 16.34C18.58 16.24 18.47 16.1 18.4 15.93C18.33 15.76 18.31 15.58 18.35 15.4C18.38 15.22 18.47 15.06 18.6 14.93C18.72 14.8 18.89 14.71 19.07 14.68C19.24 14.64 19.43 14.66 19.6 14.73C19.76 14.8 19.91 14.92 20.01 15.07C20.11 15.22 20.16 15.4 20.16 15.58C20.16 15.82 20.07 16.05 19.89 16.23C19.72 16.4 19.49 16.5 19.25 16.5Z" fill="#FFFFFF" fill-opacity="1.000000" fill-rule="nonzero"/>
	</g>
</svg>
