<svg width="14.000000" height="12.000000" viewBox="0 0 14 12" fill="none" xmlns="http://www.w3.org/2000/svg" xmlns:xlink="http://www.w3.org/1999/xlink">
	<desc>
			Created with Pixso.
	</desc>
	<defs/>
	<path id="Vector" d="M10.5 0L3.5 0C1.4 0 0 1.05 0 3.52L0 8.47C0 10.94 1.4 12 3.5 12L10.5 12C12.59 12 14 10.94 14 8.47L14 3.52C14 1.05 12.59 0 10.5 0ZM10.82 4.29L8.63 6.06C8.17 6.43 7.58 6.62 7 6.62C6.41 6.62 5.81 6.43 5.36 6.06L3.17 4.29C2.94 4.11 2.91 3.77 3.08 3.55C3.26 3.32 3.59 3.28 3.82 3.46L6.01 5.23C6.54 5.66 7.44 5.66 7.98 5.23L10.17 3.46C10.39 3.28 10.73 3.31 10.9 3.55C11.08 3.77 11.05 4.11 10.82 4.29Z" fill="#8D9BCB" fill-opacity="1.000000" fill-rule="nonzero"/>
</svg>
