<svg width="18.333496" height="18.333313" viewBox="0 0 18.3335 18.3333" fill="none" xmlns="http://www.w3.org/2000/svg" xmlns:xlink="http://www.w3.org/1999/xlink">
	<desc>
			Created with Pixso.
	</desc>
	<defs>
		<clipPath id="clip7_971">
			<rect id="expand (2) 1" rx="-0.500000" width="17.333334" height="17.333334" transform="translate(0.500000 0.500000)" fill="white" fill-opacity="0"/>
		</clipPath>
	</defs>
	<rect id="expand (2) 1" rx="-0.500000" width="17.333334" height="17.333334" transform="translate(0.500000 0.500000)" fill="#FFFFFF" fill-opacity="0"/>
	<g clip-path="url(#clip7_971)">
		<path id="Vector" d="M14.51 18.33L12.98 18.33C12.78 18.33 12.58 18.25 12.44 18.1C12.3 17.96 12.22 17.77 12.22 17.56C12.22 17.36 12.3 17.17 12.44 17.02C12.58 16.88 12.78 16.8 12.98 16.8L14.51 16.8C15.12 16.8 15.7 16.56 16.13 16.13C16.56 15.7 16.8 15.12 16.8 14.51L16.8 12.98C16.8 12.78 16.88 12.58 17.02 12.44C17.17 12.3 17.36 12.22 17.56 12.22C17.77 12.22 17.96 12.3 18.1 12.44C18.25 12.58 18.33 12.78 18.33 12.98L18.33 14.51C18.33 15.52 17.92 16.49 17.21 17.21C16.49 17.92 15.52 18.33 14.51 18.33Z" fill="#7F89C1" fill-opacity="1.000000" fill-rule="nonzero"/>
		<path id="Vector" d="M0.76 6.11C0.56 6.11 0.36 6.03 0.22 5.88C0.08 5.74 0 5.54 0 5.34L0 3.81C0 2.8 0.4 1.83 1.12 1.12C1.83 0.4 2.8 0 3.81 0L5.34 0C5.54 0 5.74 0.08 5.88 0.22C6.03 0.36 6.11 0.56 6.11 0.76C6.11 0.96 6.03 1.16 5.88 1.3C5.74 1.44 5.54 1.52 5.34 1.52L3.81 1.52C3.21 1.52 2.62 1.76 2.19 2.19C1.76 2.62 1.52 3.21 1.52 3.81L1.52 5.34C1.52 5.54 1.44 5.74 1.3 5.88C1.16 6.03 0.96 6.11 0.76 6.11Z" fill="#7F89C1" fill-opacity="1.000000" fill-rule="nonzero"/>
		<path id="Vector" d="M5.34 18.33L3.81 18.33C2.8 18.33 1.83 17.92 1.12 17.21C0.4 16.49 0 15.52 0 14.51L0 12.98C0 12.78 0.08 12.58 0.22 12.44C0.36 12.3 0.56 12.22 0.76 12.22C0.96 12.22 1.16 12.3 1.3 12.44C1.44 12.58 1.52 12.78 1.52 12.98L1.52 14.51C1.52 15.12 1.76 15.7 2.19 16.13C2.62 16.56 3.21 16.8 3.81 16.8L5.34 16.8C5.54 16.8 5.74 16.88 5.88 17.02C6.03 17.17 6.11 17.36 6.11 17.56C6.11 17.77 6.03 17.96 5.88 18.1C5.74 18.25 5.54 18.33 5.34 18.33Z" fill="#7F89C1" fill-opacity="1.000000" fill-rule="nonzero"/>
		<path id="Vector" d="M17.56 6.11C17.36 6.11 17.17 6.03 17.02 5.88C16.88 5.74 16.8 5.54 16.8 5.34L16.8 3.81C16.8 3.21 16.56 2.62 16.13 2.19C15.7 1.76 15.12 1.52 14.51 1.52L12.98 1.52C12.78 1.52 12.58 1.44 12.44 1.3C12.3 1.16 12.22 0.96 12.22 0.76C12.22 0.56 12.3 0.36 12.44 0.22C12.58 0.08 12.78 0 12.98 0L14.51 0C15.52 0 16.49 0.4 17.21 1.12C17.92 1.83 18.33 2.8 18.33 3.81L18.33 5.34C18.33 5.54 18.25 5.74 18.1 5.88C17.96 6.03 17.77 6.11 17.56 6.11Z" fill="#7F89C1" fill-opacity="1.000000" fill-rule="nonzero"/>
	</g>
</svg>
