<svg width="24.000000" height="24.000000" viewBox="0 0 24 24" fill="none" xmlns="http://www.w3.org/2000/svg" xmlns:xlink="http://www.w3.org/1999/xlink">
	<desc>
			Created with Pixso.
	</desc>
	<defs/>
	<rect id="Rectangle 4642" rx="10.000000" width="24.000000" height="24.000000" fill="#16A58B" fill-opacity="0.150000"/>
	<path id="telegram" d="M5.96 11.24C9.72 9.52 12.22 8.39 13.48 7.84C17.06 6.28 17.8 6 18.28 6C18.39 5.99 18.63 6.02 18.78 6.15C18.91 6.26 18.95 6.41 18.97 6.52C18.98 6.62 19.01 6.86 18.99 7.05C18.79 9.19 17.95 14.38 17.53 16.78C17.35 17.79 16.99 18.13 16.65 18.16C15.9 18.24 15.33 17.64 14.61 17.15C13.47 16.36 12.83 15.88 11.73 15.12C10.46 14.24 11.28 13.75 12.01 12.96C12.2 12.76 15.49 9.61 15.56 9.32C15.57 9.29 15.57 9.15 15.5 9.08C15.42 9.01 15.31 9.04 15.23 9.06C15.12 9.08 13.3 10.34 9.79 12.83C9.28 13.2 8.81 13.38 8.4 13.37C7.94 13.36 7.05 13.1 6.39 12.87C5.58 12.6 4.94 12.45 5 11.98C5.03 11.74 5.35 11.49 5.96 11.24Z" fill="#FFFFFF" fill-opacity="1.000000" fill-rule="nonzero"/>
	<rect id="check 1" rx="-0.500000" width="13.000000" height="13.000000" transform="translate(5.500000 5.500000)" fill="#FFFFFF" fill-opacity="0"/>
</svg>
