<svg width="60.000000" height="60.000000" viewBox="0 0 60 60" fill="none" xmlns="http://www.w3.org/2000/svg" xmlns:xlink="http://www.w3.org/1999/xlink">
	<desc>
			Created with Pixso.
	</desc>
	<defs>
		<clipPath id="clip12_25896">
			<rect id="gift-card 1" rx="-0.500000" width="23.000000" height="23.000000" transform="translate(18.500000 18.500000)" fill="white" fill-opacity="0"/>
		</clipPath>
	</defs>
	<rect id="Rectangle 36" rx="18.000000" width="60.000000" height="60.000000" fill="#16A58B" fill-opacity="1.000000"/>
	<rect id="gift-card 1" rx="-0.500000" width="23.000000" height="23.000000" transform="translate(18.500000 18.500000)" fill="#FFFFFF" fill-opacity="0"/>
	<g clip-path="url(#clip12_25896)">
		<path id="Vector" d="M18 37L42 37C42 39.75 39.75 42 37 42L23 42C20.24 42 18 39.75 18 37ZM42 29L42 35L18 35L18 29C18 26.24 20.24 24 23 24L24.25 24C22.83 22.6 22.62 20.79 23.7 19.36C24.25 18.63 25.04 18.16 25.94 18.03C26.84 17.9 27.73 18.13 28.46 18.67C29.14 19.18 29.64 19.83 30.01 20.49C30.38 19.83 30.88 19.18 31.56 18.67C32.28 18.13 33.17 17.9 34.08 18.03C34.98 18.16 35.77 18.63 36.31 19.36C37.4 20.8 37.18 22.62 35.77 24L37 24C39.75 24 42 26.24 42 29ZM31 24C31.14 24 32.8 23.96 34.37 22.57C34.76 22.2 35.36 21.41 34.72 20.55C34.49 20.26 34.16 20.06 33.79 20.01C33.43 19.96 33.05 20.05 32.75 20.28C31.48 21.23 31.1 23.09 31.02 23.69L31.02 23.71L31 24ZM29 24L29.02 24C29.02 24 29 23.7 29 23.69C28.91 23.1 28.54 21.23 27.26 20.28C27.02 20.09 26.72 20 26.42 20C25.95 20 25.52 20.26 25.3 20.56C24.66 21.41 25.26 22.2 25.67 22.59C27.21 23.95 28.86 23.99 29 24L29 24ZM36 30C36 29.44 35.55 29 35 29C34.83 29 31 28.96 31 26L29 26C29 28.93 25.18 28.99 24.99 29C24.44 29 24 29.44 24 30C24 30.55 24.44 31 25 31C26.41 31 28.69 30.51 30 28.94C31.3 30.51 33.58 31 35 31C35.55 31 36 30.55 36 30Z" fill="#0B6353" fill-opacity="1.000000" fill-rule="nonzero"/>
	</g>
</svg>
