<svg width="13.999023" height="14.000000" viewBox="0 0 13.999 14" fill="none" xmlns="http://www.w3.org/2000/svg" xmlns:xlink="http://www.w3.org/1999/xlink">
	<desc>
			Created with Pixso.
	</desc>
	<defs/>
	<path id="Vector" d="M0 11.08L13.99 11.08C13.99 12.69 12.69 14 11.08 14L2.91 14C1.3 14 0 12.69 0 11.08ZM13.99 6.41L13.99 9.91L0 9.91L0 6.41C0 4.8 1.3 3.5 2.91 3.5L3.64 3.5C2.82 2.68 2.69 1.63 3.32 0.79C3.64 0.37 4.1 0.09 4.63 0.02C5.15 -0.06 5.68 0.07 6.1 0.39C6.5 0.69 6.79 1.07 7 1.45C7.22 1.07 7.51 0.69 7.9 0.39C8.33 0.07 8.85 -0.06 9.37 0.02C9.9 0.09 10.36 0.37 10.68 0.79C11.31 1.63 11.19 2.69 10.36 3.5L11.08 3.5C12.69 3.5 13.99 4.8 13.99 6.41ZM7.58 3.5C7.66 3.5 8.63 3.48 9.55 2.66C9.77 2.45 10.12 1.99 9.75 1.49C9.62 1.31 9.43 1.2 9.21 1.17C9 1.14 8.78 1.19 8.6 1.33C7.86 1.88 7.64 2.97 7.59 3.32L7.59 3.33L7.58 3.5ZM6.42 3.5L6.42 3.5C6.42 3.5 6.41 3.32 6.41 3.32C6.36 2.97 6.15 1.89 5.4 1.33C5.26 1.22 5.09 1.16 4.91 1.16C4.64 1.16 4.39 1.31 4.26 1.49C3.88 1.99 4.23 2.45 4.47 2.68C5.37 3.47 6.33 3.5 6.42 3.5L6.42 3.5ZM10.49 7C10.49 6.67 10.23 6.41 9.91 6.41C9.82 6.41 7.58 6.39 7.58 4.66L6.41 4.66C6.41 6.37 4.18 6.41 4.08 6.41C3.76 6.41 3.49 6.67 3.49 7C3.49 7.32 3.76 7.58 4.08 7.58C4.9 7.58 6.23 7.29 6.99 6.38C7.75 7.29 9.08 7.58 9.91 7.58C10.23 7.58 10.49 7.32 10.49 7Z" fill="#16A58B" fill-opacity="1.000000" fill-rule="nonzero"/>
</svg>
