<svg width="14.142578" height="12.571429" viewBox="0 0 14.1426 12.5714" fill="none" xmlns="http://www.w3.org/2000/svg" xmlns:xlink="http://www.w3.org/1999/xlink">
	<desc>
			Created with Pixso.
	</desc>
	<defs/>
	<path id="↳ Icon Color" d="M5.73 0.23C6.03 -0.08 6.53 -0.08 6.84 0.23C7.14 0.53 7.14 1.03 6.84 1.34L2.68 5.5L13.35 5.5C13.75 5.5 14.09 5.8 14.13 6.19L14.14 6.28C14.14 6.71 13.79 7.07 13.35 7.07L2.68 7.07L6.84 11.23C7.12 11.51 7.14 11.95 6.9 12.26L6.84 12.34C6.53 12.64 6.03 12.64 5.73 12.34L0.23 6.84L0.17 6.77C0.17 6.77 0.16 6.77 0.16 6.77C0.16 6.76 0.15 6.75 0.15 6.75C0.14 6.73 0.12 6.71 0.11 6.69C0.1 6.68 0.1 6.67 0.09 6.66C0.08 6.65 0.08 6.63 0.07 6.61C0.06 6.6 0.06 6.59 0.05 6.57C0.04 6.56 0.04 6.54 0.03 6.53C0.03 6.51 0.03 6.5 0.02 6.49C0.02 6.47 0.01 6.46 0.01 6.44C0.01 6.42 0.01 6.41 0 6.4C0 6.36 0 6.32 0 6.28L0 6.35C0 6.33 0 6.31 0 6.3L0 6.28C0 6.28 0 6.27 0 6.27C0 6.25 0 6.23 0 6.21C0 6.19 0 6.18 0 6.16C0.01 6.15 0.01 6.14 0.01 6.12C0.01 6.11 0.02 6.09 0.02 6.07C0.03 6.06 0.03 6.05 0.03 6.04C0.04 6.02 0.04 6 0.05 5.99C0.06 5.98 0.06 5.96 0.07 5.95C0.08 5.93 0.08 5.92 0.09 5.9C0.1 5.89 0.1 5.88 0.11 5.87C0.12 5.85 0.14 5.83 0.15 5.81C0.17 5.78 0.2 5.75 0.23 5.73L0.16 5.8C0.18 5.77 0.2 5.75 0.23 5.73L5.73 0.23Z" fill="#7F89C1" fill-opacity="1.000000" fill-rule="nonzero"/>
</svg>
