<svg width="24.000000" height="24.000000" viewBox="0 0 24 24" fill="none" xmlns="http://www.w3.org/2000/svg" xmlns:xlink="http://www.w3.org/1999/xlink">
	<desc>
			Created with Pixso.
	</desc>
	<defs>
		<clipPath id="clip12_28143">
			<rect id="check 1" rx="-0.500000" width="13.000000" height="13.000000" transform="translate(5.500000 5.500000)" fill="white" fill-opacity="0"/>
		</clipPath>
	</defs>
	<rect id="Rectangle 4642" rx="10.000000" width="24.000000" height="24.000000" fill="#16A58B" fill-opacity="0.150000"/>
	<rect id="check 1" rx="-0.500000" width="13.000000" height="13.000000" transform="translate(5.500000 5.500000)" fill="#FFFFFF" fill-opacity="0"/>
	<g clip-path="url(#clip12_28143)">
		<path id="Vector" d="M18.67 7.28C18.24 6.85 17.53 6.85 17.1 7.28L10.03 14.35L6.89 11.21C6.46 10.78 5.75 10.78 5.32 11.21C4.89 11.64 4.89 12.35 5.32 12.78L9.25 16.71C9.46 16.92 9.75 17.03 10.03 17.03C10.32 17.03 10.6 16.92 10.82 16.71L18.67 8.85C19.1 8.42 19.1 7.72 18.67 7.28Z" fill="#16A58B" fill-opacity="1.000000" fill-rule="nonzero"/>
	</g>
</svg>
