<svg width="28.000000" height="28.000000" viewBox="0 0 28 28" fill="none" xmlns="http://www.w3.org/2000/svg" xmlns:xlink="http://www.w3.org/1999/xlink">
	<desc>
			Created with Pixso.
	</desc>
	<defs>
		<clipPath id="clip19_13310">
			<rect id="chevrons_2_left_outline_28" rx="-0.500000" width="19.000000" height="19.000000" transform="translate(4.500000 4.500000)" fill="white" fill-opacity="0"/>
		</clipPath>
	</defs>
	<rect id="Rectangle 3" rx="8.000000" width="28.000000" height="28.000000" fill="#171B2D" fill-opacity="0.650000"/>
	<g clip-path="url(#clip19_13310)">
		<path id="↳ Icon Color" d="M14.14 18.13L10.01 14L14.14 9.86C14.42 9.58 14.42 9.13 14.14 8.85C13.86 8.57 13.41 8.57 13.13 8.85L8.49 13.49C8.21 13.77 8.21 14.22 8.49 14.5L13.13 19.14C13.41 19.42 13.86 19.42 14.14 19.14C14.42 18.86 14.42 18.41 14.14 18.13ZM19.86 18.13L15.72 14L19.86 9.86C20.14 9.58 20.14 9.13 19.86 8.85C19.58 8.57 19.13 8.57 18.85 8.85L14.2 13.49C13.93 13.77 13.93 14.22 14.2 14.5L18.85 19.14C19.13 19.42 19.58 19.42 19.86 19.14C20.14 18.86 20.14 18.41 19.86 18.13Z" fill="#7F89C1" fill-opacity="1.000000" fill-rule="evenodd"/>
	</g>
</svg>
