<svg width="16.666748" height="15.944313" viewBox="0 0 16.6667 15.9443" fill="none" xmlns="http://www.w3.org/2000/svg" xmlns:xlink="http://www.w3.org/1999/xlink">
	<desc>
			Created with Pixso.
	</desc>
	<defs/>
	<path id="Vector" d="M12.5 0L4.16 0C1.66 0 0 1.66 0 4.16L0 9.16C0 11.66 1.66 13.33 4.16 13.33L4.16 15.1C4.16 15.77 4.9 16.17 5.45 15.8L9.16 13.33L12.5 13.33C15 13.33 16.66 11.66 16.66 9.16L16.66 4.16C16.66 1.66 15 0 12.5 0ZM8.33 10.14C7.98 10.14 7.7 9.85 7.7 9.51C7.7 9.17 7.98 8.89 8.33 8.89C8.68 8.89 8.95 9.17 8.95 9.51C8.95 9.85 8.68 10.14 8.33 10.14ZM9.38 6.68C9.05 6.9 8.95 7.04 8.95 7.27L8.95 7.45C8.95 7.79 8.67 8.07 8.33 8.07C7.99 8.07 7.7 7.79 7.7 7.45L7.7 7.27C7.7 6.3 8.41 5.83 8.68 5.65C8.99 5.44 9.09 5.3 9.09 5.08C9.09 4.66 8.75 4.32 8.33 4.32C7.91 4.32 7.57 4.66 7.57 5.08C7.57 5.42 7.29 5.7 6.94 5.7C6.6 5.7 6.32 5.42 6.32 5.08C6.32 3.97 7.22 3.07 8.33 3.07C9.44 3.07 10.34 3.97 10.34 5.08C10.34 6.03 9.64 6.5 9.38 6.68Z" fill="#7F89C1" fill-opacity="1.000000" fill-rule="nonzero"/>
</svg>
