<svg width="18.000000" height="18.000000" viewBox="0 0 18 18" fill="none" xmlns="http://www.w3.org/2000/svg" xmlns:xlink="http://www.w3.org/1999/xlink">
	<defs>
		<clipPath id="clip19_13424">
			<rect id="Frame" rx="-0.500000" width="17.000000" height="17.000000" transform="translate(0.500000 0.500000)" fill="white" fill-opacity="0"/>
		</clipPath>
	</defs>
	<rect id="Frame" rx="-0.500000" width="17.000000" height="17.000000" transform="translate(0.500000 0.500000)" fill="#FFFFFF" fill-opacity="0"/>
	<g clip-path="url(#clip19_13424)">
		<path id="Vector" d="M4.19 2.25L6.3 2.25C7.38 2.25 8.25 3.11 8.25 4.19L8.25 6.3C8.25 7.38 7.38 8.25 6.3 8.25L4.19 8.25C3.11 8.25 2.25 7.38 2.25 6.3L2.25 4.19C2.25 3.11 3.11 2.25 4.19 2.25Z" fill="#7F89C1" fill-opacity="1.000000" fill-rule="evenodd"/>
		<path id="Vector" d="M4.19 9.75L6.3 9.75C7.38 9.75 8.25 10.61 8.25 11.69L8.25 13.8C8.25 14.88 7.38 15.75 6.3 15.75L4.19 15.75C3.11 15.75 2.25 14.88 2.25 13.8L2.25 11.69C2.25 10.61 3.11 9.75 4.19 9.75Z" fill="#7F89C1" fill-opacity="1.000000" fill-rule="evenodd"/>
		<path id="Vector" d="M11.69 2.25L13.8 2.25C14.88 2.25 15.75 3.11 15.75 4.19L15.75 6.3C15.75 7.38 14.88 8.25 13.8 8.25L11.69 8.25C10.61 8.25 9.75 7.38 9.75 6.3L9.75 4.19C9.75 3.11 10.61 2.25 11.69 2.25Z" fill="#7F89C1" fill-opacity="1.000000" fill-rule="evenodd"/>
		<path id="Vector" d="M11.69 9.75L13.8 9.75C14.88 9.75 15.75 10.61 15.75 11.69L15.75 13.8C15.75 14.88 14.88 15.75 13.8 15.75L11.69 15.75C10.61 15.75 9.75 14.88 9.75 13.8L9.75 11.69C9.75 10.61 10.61 9.75 11.69 9.75Z" fill="#7F89C1" fill-opacity="1.000000" fill-rule="evenodd"/>
	</g>
</svg>
