<svg width="48.000000" height="48.000000" viewBox="0 0 48 48" fill="none" xmlns="http://www.w3.org/2000/svg" xmlns:xlink="http://www.w3.org/1999/xlink">
	<desc>
			Created with Pixso.
	</desc>
	<defs>
		<linearGradient x1="24.000000" y1="0.000000" x2="24.000000" y2="48.000000" id="paint_linear_19_11650_0" gradientUnits="userSpaceOnUse">
			<stop stop-color="#53C9C2"/>
			<stop offset="1.000000" stop-color="#225A7A"/>
		</linearGradient>
	</defs>
	<rect id="Rectangle 2" rx="16.000000" width="48.000000" height="48.000000" fill="url(#paint_linear_19_11650_0)" fill-opacity="1.000000"/>
	<rect id="vuesax/bold/airdrop" rx="-0.500000" width="23.000000" height="23.000000" transform="translate(12.500000 12.500000)" fill="#FFFFFF" fill-opacity="0"/>
	<g opacity="0.000000"/>
	<path id="Vector" d="M26.12 23.34C26.52 21.7 25.09 20.27 23.45 20.66C22.67 20.85 22.05 21.48 21.85 22.25C21.47 23.89 22.89 25.32 24.54 24.93C25.32 24.74 25.95 24.11 26.12 23.34Z" fill="#FFFFFF" fill-opacity="1.000000" fill-rule="nonzero"/>
	<path id="Vector" d="M18.02 29.97C17.83 29.97 17.64 29.9 17.51 29.77C15.57 27.97 14.46 25.43 14.46 22.79C14.46 17.53 18.74 13.25 24 13.25C29.26 13.25 33.54 17.53 33.54 22.79C33.54 25.45 32.47 27.91 30.53 29.74C30.23 30.02 29.75 30.01 29.47 29.71C29.18 29.41 29.2 28.93 29.5 28.65C31.13 27.11 32.04 25.04 32.04 22.8C32.04 18.37 28.42 14.76 24 14.76C19.57 14.76 15.96 18.37 15.96 22.8C15.96 25.06 16.86 27.14 18.53 28.68C18.83 28.96 18.84 29.43 18.57 29.74C18.41 29.89 18.21 29.97 18.02 29.97Z" fill="#FFFFFF" fill-opacity="1.000000" fill-rule="nonzero"/>
	<path id="Vector" d="M28 27.3C27.82 27.3 27.63 27.23 27.49 27.1C27.18 26.82 27.16 26.34 27.46 26.04C28.29 25.16 28.75 24 28.75 22.8C28.75 20.18 26.62 18.06 24.01 18.06C21.39 18.06 19.27 20.19 19.27 22.8C19.27 24.01 19.73 25.16 20.56 26.04C20.84 26.34 20.83 26.82 20.53 27.1C20.23 27.39 19.75 27.37 19.46 27.07C18.38 25.91 17.77 24.39 17.77 22.8C17.77 19.36 20.57 16.56 24.01 16.56C27.45 16.56 30.25 19.36 30.25 22.8C30.25 24.39 29.64 25.91 28.55 27.07C28.39 27.22 28.2 27.3 28 27.3Z" fill="#FFFFFF" fill-opacity="1.000000" fill-rule="nonzero"/>
	<path id="Vector" d="M22.29 28.66L20.85 30.45C19.71 31.88 20.74 34 22.55 34L25.42 34C27.25 34 28.27 31.88 27.12 30.46L25.68 28.67C24.82 27.56 23.16 27.56 22.29 28.66Z" fill="#FFFFFF" fill-opacity="1.000000" fill-rule="nonzero"/>
</svg>
