<svg width="48.000000" height="48.000000" viewBox="0 0 48 48" fill="none" xmlns="http://www.w3.org/2000/svg" xmlns:xlink="http://www.w3.org/1999/xlink">
	<desc>
			Created with Pixso.
	</desc>
	<defs/>
	<rect id="Rectangle 4580" rx="14.000000" width="48.000000" height="48.000000" fill="#008EFF" fill-opacity="1.000000"/>
	<path id="Vector" d="M24.83 29.94C24.95 30.06 25.03 30.19 25.09 30.33C25.16 30.48 25.19 30.64 25.19 30.79C25.19 30.95 25.16 31.11 25.09 31.25C25.03 31.4 24.95 31.53 24.83 31.64L24.24 32.24C23.11 33.36 21.59 34 20 34C18.4 34 16.88 33.36 15.75 32.24C14.63 31.11 14 29.59 14 28C14 26.4 14.63 24.88 15.75 23.75L18.16 21.34C19.25 20.26 20.7 19.63 22.23 19.58C23.76 19.54 25.25 20.08 26.4 21.09C26.51 21.2 26.61 21.33 26.68 21.47C26.75 21.61 26.79 21.77 26.8 21.92C26.81 22.08 26.79 22.24 26.73 22.39C26.68 22.54 26.6 22.68 26.5 22.79C26.39 22.91 26.26 23.01 26.12 23.08C25.98 23.15 25.82 23.19 25.67 23.2C25.51 23.21 25.35 23.18 25.2 23.13C25.05 23.08 24.91 23 24.8 22.89C24.11 22.28 23.22 21.96 22.3 21.99C21.38 22.01 20.51 22.39 19.86 23.04L17.45 25.45C16.78 26.12 16.4 27.04 16.4 27.99C16.4 28.95 16.78 29.86 17.45 30.54C18.13 31.21 19.04 31.59 20 31.59C20.95 31.59 21.87 31.21 22.54 30.54L23.14 29.94C23.25 29.83 23.38 29.74 23.53 29.68C23.67 29.62 23.83 29.59 23.98 29.59C24.14 29.59 24.3 29.62 24.44 29.68C24.59 29.74 24.72 29.83 24.83 29.94ZM32.24 15.75C31.11 14.63 29.59 14 28 14C26.41 14 24.88 14.63 23.75 15.75L23.16 16.34C22.93 16.57 22.81 16.87 22.81 17.19C22.81 17.51 22.93 17.82 23.16 18.04C23.38 18.27 23.69 18.39 24.01 18.39C24.33 18.39 24.63 18.27 24.86 18.04L25.45 17.45C26.13 16.77 27.04 16.39 28 16.39C28.95 16.39 29.87 16.77 30.54 17.45C31.22 18.12 31.6 19.04 31.6 19.99C31.6 20.95 31.22 21.86 30.54 22.54L28.13 24.95C27.48 25.6 26.61 25.98 25.69 26C24.78 26.03 23.88 25.7 23.2 25.09C23.08 24.99 22.94 24.91 22.79 24.86C22.64 24.8 22.48 24.78 22.33 24.79C22.17 24.8 22.01 24.84 21.87 24.91C21.73 24.98 21.6 25.08 21.5 25.19C21.39 25.31 21.31 25.45 21.26 25.6C21.21 25.75 21.19 25.91 21.19 26.06C21.2 26.22 21.24 26.38 21.31 26.52C21.38 26.66 21.48 26.79 21.6 26.89C22.74 27.91 24.23 28.45 25.76 28.4C27.29 28.36 28.74 27.73 29.83 26.65L32.24 24.24C33.36 23.11 33.99 21.59 34 20C34 18.4 33.36 16.88 32.24 15.75L32.24 15.75Z" fill="#FFFFFF" fill-opacity="1.000000" fill-rule="nonzero"/>
</svg>
