<svg width="18.000000" height="18.000000" viewBox="0 0 18 18" fill="none" xmlns="http://www.w3.org/2000/svg" xmlns:xlink="http://www.w3.org/1999/xlink">
	<desc>
			Created with Pixso.
	</desc>
	<defs>
		<clipPath id="clip19_11549">
			<rect id="Frame" rx="-0.500000" width="17.000000" height="17.000000" transform="translate(0.500000 0.500000)" fill="white" fill-opacity="0"/>
		</clipPath>
	</defs>
	<rect id="Frame" rx="-0.500000" width="17.000000" height="17.000000" transform="translate(0.500000 0.500000)" fill="#FFFFFF" fill-opacity="0"/>
	<g clip-path="url(#clip19_11549)">
		<path id="Vector" d="M5.24 14.25C6.82 14.25 8.09 13.2 8.84 12.37C9.59 13.2 10.94 14.25 12.44 14.25C15.14 14.25 17.02 12.45 17.02 9.75C17.02 6.82 14.69 4.87 12.44 3C11.39 2.17 10.27 1.27 9.44 0.29C9.29 0.07 9.07 0 8.84 0C8.62 0 8.39 0.07 8.24 0.29C7.42 1.27 6.29 2.17 5.24 3C2.99 4.87 0.67 6.75 0.67 9.75C0.67 12.45 2.54 14.25 5.24 14.25ZM6.07 17.7C7.94 17.4 9.82 17.4 11.62 17.7C9.82 14.92 8.84 9.6 8.84 9.6C8.84 9.6 7.94 14.92 6.07 17.7Z" fill="#7F89C1" fill-opacity="1.000000" fill-rule="nonzero"/>
	</g>
</svg>
