<svg width="18.000000" height="18.000000" viewBox="0 0 18 18" fill="none" xmlns="http://www.w3.org/2000/svg" xmlns:xlink="http://www.w3.org/1999/xlink">
	<rect id="vuesax/bold/play" rx="-0.500000" width="17.000000" height="17.000000" transform="translate(0.500000 0.500000)" fill="#FFFFFF" fill-opacity="0"/>
	<path id="Vector" d="M13.11 7.2L4.19 12.57C3.67 12.89 3 12.51 3 11.9L3 5.9C3 3.28 5.82 1.65 8.09 2.95L11.54 4.93L13.11 5.83C13.62 6.14 13.63 6.89 13.11 7.2Z" fill="#16A58B" fill-opacity="1.000000" fill-rule="nonzero"/>
	<path id="Vector" d="M13.56 11.59L10.53 13.35L7.5 15.09C6.41 15.72 5.18 15.59 4.29 14.96C3.85 14.66 3.9 13.99 4.36 13.72L13.89 8C14.34 7.74 14.93 7.99 15.02 8.51C15.21 9.67 14.73 10.92 13.56 11.59Z" fill="#16A58B" fill-opacity="1.000000" fill-rule="nonzero"/>
	<g opacity="0.000000"/>
</svg>
