<svg width="16.000000" height="16.000000" viewBox="0 0 16 16" fill="none" xmlns="http://www.w3.org/2000/svg" xmlns:xlink="http://www.w3.org/1999/xlink">
	<desc>
			Created with Pixso.
	</desc>
	<defs>
		<clipPath id="clip13_11225">
			<rect id="lock (1) 1" rx="-0.500000" width="15.000000" height="15.000000" transform="translate(0.500000 0.500000)" fill="white" fill-opacity="0"/>
		</clipPath>
	</defs>
	<rect id="lock (1) 1" rx="-0.500000" width="15.000000" height="15.000000" transform="translate(0.500000 0.500000)" fill="#FFFFFF" fill-opacity="0"/>
	<g clip-path="url(#clip13_11225)">
		<path id="Vector" d="M12.66 5.61L12.66 4.66C12.66 2.08 10.57 0 8 0C5.42 0 3.33 2.08 3.33 4.66L3.33 5.61C2.12 6.14 1.33 7.34 1.33 8.66L1.33 12.66C1.33 14.5 2.82 15.99 4.66 16L11.33 16C13.17 15.99 14.66 14.5 14.66 12.66L14.66 8.66C14.66 7.34 13.88 6.14 12.66 5.61ZM8.66 11.33C8.66 11.7 8.36 12 8 12C7.63 12 7.33 11.7 7.33 11.33L7.33 10C7.33 9.63 7.63 9.33 8 9.33C8.36 9.33 8.66 9.63 8.66 10L8.66 11.33ZM11.33 5.33L4.66 5.33L4.66 4.66C4.66 2.82 6.16 1.33 8 1.33C9.84 1.33 11.33 2.82 11.33 4.66L11.33 5.33Z" fill="#8D9BCB" fill-opacity="1.000000" fill-rule="nonzero"/>
	</g>
</svg>
