<svg width="119.166504" height="40.000000" viewBox="0 0 119.167 40" fill="none" xmlns="http://www.w3.org/2000/svg" xmlns:xlink="http://www.w3.org/1999/xlink">
	<desc>
			Created with Pixso.
	</desc>
	<defs>
		<clipPath id="clip208_13511">
			<rect id="Frame" rx="-0.500000" width="118.166664" height="39.000000" transform="translate(0.500000 0.500000)" fill="white" fill-opacity="0"/>
		</clipPath>
	</defs>
	<rect id="Frame" rx="-0.500000" width="118.166664" height="39.000000" transform="translate(0.500000 0.500000)" fill="#FFFFFF" fill-opacity="0"/>
	<g clip-path="url(#clip208_13511)">
		<mask id="mask208_13505" mask-type="alpha" maskUnits="userSpaceOnUse" x="0.000000" y="0.000000" width="40.000000" height="40.000000">
			<path id="Vector" d="M0 0L40 0L40 40L0 40L0 0Z" fill="#000000" fill-opacity="1.000000" fill-rule="evenodd"/>
		</mask>
		<g mask="url(#mask208_13505)">
			<path id="Vector" d="M13.33 0L26.66 0C34.03 0 40 5.96 40 13.33L40 26.66C40 34.03 34.03 40 26.66 40L13.33 40C5.96 40 0 34.03 0 26.66L0 13.33C0 5.96 5.96 0 13.33 0Z" fill="#008EFF" fill-opacity="1.000000" fill-rule="evenodd"/>
			<path id="Vector" d="M24.25 10.7C26.66 10.7 28.56 11.28 29.95 12.44C31.34 13.6 32.03 15.19 32.03 17.2L32.03 17.54C32.03 19.57 31.34 21.17 29.95 22.33C28.56 23.49 26.66 24.07 24.25 24.07L15.98 24.07L15.98 31.11L11.31 31.11L11.31 10.7L24.25 10.7ZM24.13 19.94C25.14 19.94 25.92 19.74 26.46 19.35C27 18.93 27.27 18.33 27.27 17.54L27.27 17.2C27.27 16.43 27 15.85 26.46 15.46C25.92 15.04 25.14 14.83 24.13 14.83L15.98 14.83L15.98 19.94L24.13 19.94Z" fill="#FFFFFF" fill-opacity="1.000000" fill-rule="nonzero"/>
		</g>
		<path id="Vector" d="M51.95 15.66C54.44 15.66 56 16.95 56 19.05C56 21.13 54.44 22.42 51.95 22.42L50.07 22.42L50.07 25L47.91 25L47.91 15.66L51.95 15.66ZM51.83 20.66C53.15 20.66 53.81 20.06 53.81 19.05C53.81 18.02 53.15 17.42 51.83 17.42L50.07 17.42L50.07 20.66L51.83 20.66ZM64.05 25L63.22 23L58.89 23L58.06 25L55.85 25L60.01 15.66L62.14 15.66L66.31 25L64.05 25ZM59.58 21.35L62.54 21.35L61.06 17.78L59.58 21.35ZM75.55 25L73.23 25L71.43 22.39L71.32 22.39L69.44 22.39L69.44 25L67.28 25L67.28 15.66L71.32 15.66C73.81 15.66 75.37 16.95 75.37 19.05C75.37 20.45 74.67 21.48 73.45 22L75.55 25ZM73.19 19.05C73.19 18.02 72.52 17.42 71.2 17.42L69.44 17.42L69.44 20.67L71.2 20.67C72.52 20.67 73.19 20.06 73.19 19.05ZM84.06 25L83.23 23L78.9 23L78.07 25L75.86 25L80.02 15.66L82.15 15.66L86.33 25L84.06 25ZM79.59 21.35L82.55 21.35L81.07 17.78L79.59 21.35ZM87.29 25L87.29 15.66L91.53 15.66C94.59 15.66 96.68 17.5 96.68 20.33C96.68 23.15 94.59 25 91.53 25L87.29 25ZM89.45 23.22L91.43 23.22C93.28 23.22 94.49 22.11 94.49 20.33C94.49 18.54 93.28 17.43 91.43 17.43L89.45 17.43L89.45 23.22ZM98.31 25L98.31 15.66L100.47 15.66L100.47 25L98.31 25ZM105.75 25.15C104.27 25.15 102.78 24.72 101.95 24.07L102.68 22.45C103.47 23.02 104.64 23.42 105.76 23.42C107.04 23.42 107.56 23 107.56 22.42C107.56 20.67 102.14 21.87 102.14 18.41C102.14 16.82 103.42 15.5 106.07 15.5C107.24 15.5 108.44 15.78 109.31 16.33L108.64 17.97C107.78 17.48 106.88 17.24 106.06 17.24C104.78 17.24 104.28 17.71 104.28 18.3C104.28 20.02 109.71 18.83 109.71 22.26C109.71 23.82 108.42 25.15 105.75 25.15ZM113.33 23.26L118.41 23.26L118.41 25L111.19 25L111.19 15.66L118.24 15.66L118.24 17.39L113.33 17.39L113.33 19.42L117.67 19.42L117.67 21.1L113.33 21.1L113.33 23.26Z" fill="#343A60" fill-opacity="1.000000" fill-rule="nonzero"/>
	</g>
</svg>
