<svg width="14.000000" height="14.000000" viewBox="0 0 14 14" fill="none" xmlns="http://www.w3.org/2000/svg" xmlns:xlink="http://www.w3.org/1999/xlink">
	<desc>
			Created with Pixso.
	</desc>
	<defs/>
	<g opacity="0.000000"/>
	<path id="Vector" d="M10.08 2.41L10.04 4.62C10.03 4.92 10.23 5.33 10.47 5.51L11.92 6.6C12.85 7.3 12.69 8.16 11.59 8.51L9.7 9.1C9.39 9.2 9.05 9.54 8.97 9.87L8.52 11.58C8.17 12.93 7.28 13.07 6.55 11.88L5.52 10.22C5.33 9.91 4.89 9.68 4.54 9.7L2.59 9.8C1.2 9.87 0.8 9.07 1.71 8L2.87 6.66C3.08 6.41 3.18 5.94 3.08 5.63L2.49 3.74C2.14 2.63 2.76 2.02 3.86 2.38L5.58 2.95C5.87 3.04 6.31 2.98 6.56 2.79L8.35 1.5C9.33 0.81 10.1 1.21 10.08 2.41Z" fill="#FFFFFF" fill-opacity="1.000000" fill-rule="nonzero"/>
	<path id="Vector" d="M12.5 11.94L10.73 10.17C10.57 10 10.29 10 10.12 10.17C9.95 10.34 9.95 10.62 10.12 10.79L11.88 12.55C11.97 12.64 12.08 12.68 12.19 12.68C12.3 12.68 12.41 12.64 12.5 12.55C12.67 12.39 12.67 12.11 12.5 11.94Z" fill="#FFFFFF" fill-opacity="1.000000" fill-rule="nonzero"/>
</svg>
