<svg width="29.000000" height="29.000000" viewBox="0 0 29 29" fill="none" xmlns="http://www.w3.org/2000/svg" xmlns:xlink="http://www.w3.org/1999/xlink">
	<desc>
			Created with Pixso.
	</desc>
	<defs/>
	<rect id="Rectangle 4600" rx="10.000000" width="29.000000" height="29.000000" fill="#2D3350" fill-opacity="1.000000"/>
	<path id="↳ Icon Color" d="M10.16 10.16C10.38 9.94 10.74 9.94 10.96 10.16L14.5 13.7L18.03 10.16C18.24 9.96 18.56 9.94 18.78 10.11L18.83 10.16C19.05 10.38 19.05 10.74 18.83 10.96L15.29 14.5L18.83 18.03C19.03 18.24 19.05 18.56 18.88 18.78L18.83 18.83C18.61 19.05 18.25 19.05 18.03 18.83L14.5 15.29L10.96 18.83C10.75 19.03 10.43 19.05 10.21 18.88L10.16 18.83C9.94 18.61 9.94 18.25 10.16 18.03L13.7 14.5L10.16 10.96C9.96 10.75 9.94 10.43 10.11 10.21L10.16 10.16Z" fill="#7785B3" fill-opacity="1.000000" fill-rule="nonzero"/>
</svg>
