<svg width="24.000000" height="24.000000" viewBox="0 0 24 24" fill="none" xmlns="http://www.w3.org/2000/svg" xmlns:xlink="http://www.w3.org/1999/xlink">
	<desc>
			Created with Pixso.
	</desc>
	<defs/>
	<rect id="vuesax/bold/arrow-circle-down" rx="-0.500000" width="23.000000" height="23.000000" transform="translate(0.500000 0.500000)" fill="#FFFFFF" fill-opacity="0"/>
	<path id="Vector" d="M12 2C6.49 2 2 6.48 2 12C2 17.51 6.49 22 12 22C17.5 22 22 17.51 22 12C22 6.48 17.5 2 12 2ZM16.05 11.27L12.53 14.8C12.37 14.95 12.19 15.02 12 15.02C11.8 15.02 11.62 14.95 11.46 14.8L7.94 11.27C7.65 10.98 7.65 10.5 7.94 10.21C8.23 9.92 8.7 9.92 9 10.21L12 13.21L15 10.21C15.29 9.92 15.76 9.92 16.05 10.21C16.34 10.5 16.34 10.97 16.05 11.27Z" fill="#FFDBDA" fill-opacity="1.000000" fill-rule="nonzero"/>
	<g opacity="0.000000"/>
</svg>
