<svg width="60.000000" height="60.000000" viewBox="0 0 60 60" fill="none" xmlns="http://www.w3.org/2000/svg" xmlns:xlink="http://www.w3.org/1999/xlink">
	<desc>
			Created with Pixso.
	</desc>
	<defs/>
	<rect rx="12.000000" width="60.000000" height="60.000000" fill="#008EFF" fill-opacity="1.000000"/>
	<g opacity="0.000000"/>
	<path d="M37.83 24C37.73 23.99 37.63 23.99 37.53 24C35.33 23.93 33.59 22.13 33.59 19.92C33.59 17.67 35.42 15.83 37.69 15.83C39.94 15.83 41.78 17.66 41.78 19.92C41.77 22.13 40.02 23.93 37.83 24Z" fill="#FFFFFF" fill-opacity="1.000000" fill-rule="nonzero"/>
	<path d="M42.45 33.82C40.86 34.88 38.64 35.28 36.58 35.01C37.12 33.85 37.41 32.56 37.42 31.2C37.42 29.78 37.11 28.44 36.51 27.26C38.61 26.98 40.83 27.37 42.43 28.44C44.67 29.91 44.67 32.33 42.45 33.82Z" fill="#FFFFFF" fill-opacity="1.000000" fill-rule="nonzero"/>
	<path d="M22.12 24C22.22 23.99 22.32 23.99 22.42 24C24.61 23.93 26.35 22.13 26.35 19.92C26.35 17.66 24.53 15.83 22.26 15.83C20.01 15.83 18.18 17.66 18.18 19.92C18.18 22.13 19.92 23.93 22.12 24Z" fill="#FFFFFF" fill-opacity="1.000000" fill-rule="nonzero"/>
	<path d="M22.27 31.2C22.27 32.57 22.57 33.88 23.11 35.05C21.11 35.27 19.03 34.84 17.5 33.83C15.26 32.35 15.26 29.92 17.5 28.44C19.02 27.42 21.16 27.01 23.17 27.23C22.58 28.42 22.27 29.77 22.27 31.2Z" fill="#FFFFFF" fill-opacity="1.000000" fill-rule="nonzero"/>
	<path d="M30.16 35.48C30.05 35.46 29.92 35.46 29.8 35.48C27.19 35.39 25.11 33.25 25.11 30.62C25.12 27.93 27.29 25.75 30 25.75C32.69 25.75 34.87 27.93 34.87 30.62C34.85 33.25 32.79 35.39 30.16 35.48Z" fill="#FFFFFF" fill-opacity="1.000000" fill-rule="nonzero"/>
	<path d="M25.56 38.41C23.42 39.84 23.42 42.19 25.56 43.61C28 45.24 31.99 45.24 34.43 43.61C36.57 42.18 36.57 39.83 34.43 38.41C32.01 36.78 28.01 36.78 25.56 38.41Z" fill="#FFFFFF" fill-opacity="1.000000" fill-rule="nonzero"/>
</svg>
