<svg width="20.000000" height="20.000000" viewBox="0 0 20 20" fill="none" xmlns="http://www.w3.org/2000/svg" xmlns:xlink="http://www.w3.org/1999/xlink">
	<desc>
			Created with Pixso.
	</desc>
	<defs/>
	<path id="Vector" d="M10 0C4.49 0 0 4.48 0 10C0 15.51 4.49 20 10 20C15.5 20 20 15.51 20 10C20 4.48 15.5 0 10 0ZM14 10.75L10.75 10.75L10.75 14C10.75 14.41 10.41 14.75 10 14.75C9.58 14.75 9.25 14.41 9.25 14L9.25 10.75L6 10.75C5.58 10.75 5.25 10.41 5.25 10C5.25 9.59 5.58 9.25 6 9.25L9.25 9.25L9.25 6C9.25 5.59 9.58 5.25 10 5.25C10.41 5.25 10.75 5.59 10.75 6L10.75 9.25L14 9.25C14.41 9.25 14.75 9.59 14.75 10C14.75 10.41 14.41 10.75 14 10.75Z" fill="#FFFFFF" fill-opacity="1.000000" fill-rule="nonzero"/>
</svg>
