<svg width="18.000000" height="18.000000" viewBox="0 0 18 18" fill="none" xmlns="http://www.w3.org/2000/svg" xmlns:xlink="http://www.w3.org/1999/xlink">
	<desc>
			Created with Pixso.
	</desc>
	<defs>
		<clipPath id="clip19_11554">
			<rect id="poker-cards 1" rx="-0.500000" width="17.000000" height="17.000000" transform="translate(0.500000 0.500000)" fill="white" fill-opacity="0"/>
		</clipPath>
	</defs>
	<rect id="poker-cards 1" rx="-0.500000" width="17.000000" height="17.000000" transform="translate(0.500000 0.500000)" fill="#FFFFFF" fill-opacity="0"/>
	<g clip-path="url(#clip19_11554)">
		<path id="Vector" d="M16.83 1.21L10.05 0.02C9.28 -0.12 8.56 0.39 8.42 1.16L8.36 1.52C9.34 1.64 10.17 2.35 10.43 3.32L10.84 4.87C11.06 4.77 11.31 4.74 11.57 4.79C12.05 4.87 12.42 5.22 12.55 5.65C12.83 5.29 13.3 5.09 13.78 5.17C14.47 5.3 14.92 5.95 14.8 6.64C14.54 8.14 12.93 9.34 12.17 9.83L13.34 14.17C13.4 14.4 13.42 14.64 13.42 14.87L14.4 15.04C15.16 15.17 15.89 14.66 16.02 13.9L17.97 2.84C18.11 2.08 17.6 1.35 16.83 1.21Z" fill="#7F89C1" fill-opacity="1.000000" fill-rule="nonzero"/>
		<path id="Vector" d="M10.05 5.87C9.88 5.34 9.28 4.99 8.63 5C8.51 5 8.38 5.01 8.25 5.04L1.25 6.54C0.47 6.71 0 7.35 0.21 7.98L3.27 17.12C3.44 17.65 4.04 18 4.69 18C4.82 18 4.94 17.98 5.07 17.95L12.07 16.45C12.85 16.28 13.32 15.64 13.11 15.01L10.05 5.87ZM4.61 12.11C4.49 12.03 4.45 11.9 4.5 11.78L5.57 9.24C5.66 9.03 5.99 8.96 6.2 9.11L8.71 10.88C8.83 10.96 8.87 11.09 8.82 11.21L7.75 13.75C7.66 13.96 7.33 14.03 7.12 13.88L4.61 12.11Z" fill="#7F89C1" fill-opacity="1.000000" fill-rule="nonzero"/>
	</g>
</svg>
