<svg width="24.000000" height="24.000000" viewBox="0 0 24 24" fill="none" xmlns="http://www.w3.org/2000/svg" xmlns:xlink="http://www.w3.org/1999/xlink">
	<desc>
			Created with Pixso.
	</desc>
	<defs>
		<clipPath id="clip9_1032">
			<rect id="Frame" rx="-0.500000" width="23.000000" height="23.000000" transform="translate(0.500000 0.500000)" fill="white" fill-opacity="0"/>
		</clipPath>
	</defs>
	<rect id="Frame" rx="-0.500000" width="23.000000" height="23.000000" transform="translate(0.500000 0.500000)" fill="#FFFFFF" fill-opacity="0"/>
	<g clip-path="url(#clip9_1032)">
		<path id="Vector" d="M22.66 12C22.66 6.1 17.89 1.33 12 1.33C6.1 1.33 1.33 6.1 1.33 12C1.33 17.89 6.1 22.66 12 22.66C17.89 22.66 22.66 17.89 22.66 12Z" fill="#3485FE" fill-opacity="1.000000" fill-rule="nonzero"/>
		<path id="Vector" d="M12 1.33C17.89 1.33 22.66 6.1 22.66 12C22.66 17.89 17.89 22.66 12 22.66C6.1 22.66 1.33 17.89 1.33 12C1.33 6.1 6.1 1.33 12 1.33ZM20.03 8.67Q20.66 10.2 20.66 12Q20.66 13.79 20.03 15.32Q19.39 16.85 18.12 18.12Q16.85 19.39 15.32 20.03Q13.79 20.66 12 20.66Q10.2 20.66 8.67 20.03Q7.14 19.39 5.87 18.12Q4.6 16.85 3.96 15.32Q3.33 13.79 3.33 12Q3.33 10.2 3.96 8.67Q4.6 7.14 5.87 5.87Q7.14 4.6 8.67 3.96Q10.2 3.33 12 3.33Q13.79 3.33 15.32 3.96Q16.85 4.6 18.12 5.87Q19.39 7.14 20.03 8.67Z" fill="#5096FF" fill-opacity="1.000000" fill-rule="evenodd"/>
		<path id="Vector" d="M11.94 9.87C11.94 10.39 11.75 10.83 11.37 11.2C11 11.56 10.53 11.74 9.97 11.74C9.4 11.74 8.93 11.56 8.56 11.2C8.18 10.83 8 10.39 8 9.87C8 9.35 8.18 8.91 8.56 8.55C8.94 8.18 9.41 8 9.97 8C10.53 8 11 8.17 11.37 8.53C11.75 8.89 11.94 9.33 11.94 9.87ZM9.69 15.08L8.94 14.65L14.07 9.14L14.82 9.56L9.69 15.08ZM10.57 9.87C10.57 9.69 10.52 9.55 10.4 9.44C10.29 9.32 10.14 9.26 9.96 9.26C9.69 9.26 9.5 9.39 9.4 9.65C9.31 9.9 9.35 10.11 9.53 10.3C9.7 10.5 9.92 10.54 10.19 10.43C10.47 10.31 10.6 10.13 10.57 9.87ZM15.43 15.46C15.06 15.82 14.59 16 14.03 16C13.46 16 12.99 15.82 12.62 15.46C12.24 15.09 12.05 14.64 12.05 14.12C12.05 13.61 12.24 13.17 12.62 12.8C13 12.43 13.47 12.25 14.03 12.25C14.58 12.25 15.05 12.43 15.43 12.8C15.81 13.17 16 13.61 16 14.12C16 14.64 15.81 15.09 15.43 15.46ZM14.63 14.12C14.63 13.95 14.57 13.8 14.46 13.69C14.35 13.57 14.2 13.52 14.02 13.52C13.75 13.52 13.56 13.64 13.46 13.9C13.36 14.15 13.4 14.37 13.59 14.55C13.75 14.75 13.97 14.79 14.25 14.68C14.53 14.57 14.65 14.38 14.63 14.12Z" fill="#FFFFFF" fill-opacity="1.000000" fill-rule="nonzero"/>
	</g>
</svg>
