<svg width="18.000000" height="18.000000" viewBox="0 0 18 18" fill="none" xmlns="http://www.w3.org/2000/svg" xmlns:xlink="http://www.w3.org/1999/xlink">
	<desc>
			Created with Pixso.
	</desc>
	<defs>
		<clipPath id="clip9_2377">
			<rect id="interrogation 1" rx="-0.500000" width="17.000000" height="17.000000" transform="translate(0.500000 0.500000)" fill="white" fill-opacity="0"/>
		</clipPath>
	</defs>
	<rect id="interrogation 1" rx="-0.500000" width="17.000000" height="17.000000" transform="translate(0.500000 0.500000)" fill="#FFFFFF" fill-opacity="0"/>
	<g clip-path="url(#clip9_2377)">
		<path id="Vector" d="M9 0C7.21 0 5.47 0.52 4 1.51C2.51 2.5 1.36 3.91 0.68 5.55C0 7.2 -0.18 9 0.17 10.75C0.52 12.5 1.37 14.1 2.63 15.36C3.89 16.62 5.49 17.47 7.24 17.82C8.99 18.17 10.79 17.99 12.44 17.31C14.08 16.63 15.49 15.48 16.48 14C17.47 12.52 18 10.78 18 9C17.99 6.61 17.04 4.32 15.36 2.63C13.67 0.95 11.38 0 9 0ZM9 15C8.85 15 8.7 14.95 8.58 14.87C8.45 14.79 8.36 14.67 8.3 14.53C8.25 14.4 8.23 14.24 8.26 14.1C8.29 13.95 8.36 13.82 8.46 13.71C8.57 13.61 8.7 13.54 8.85 13.51C8.99 13.48 9.15 13.5 9.28 13.55C9.42 13.61 9.54 13.71 9.62 13.83C9.7 13.95 9.75 14.1 9.75 14.25C9.75 14.44 9.67 14.63 9.53 14.78C9.38 14.92 9.19 15 9 15ZM10.44 9.37C10.22 9.51 10.04 9.71 9.92 9.94C9.8 10.17 9.74 10.43 9.75 10.69L9.75 11.25C9.75 11.44 9.67 11.63 9.53 11.78C9.38 11.92 9.19 12 9 12C8.8 12 8.61 11.92 8.46 11.78C8.32 11.63 8.25 11.44 8.25 11.25L8.25 10.69C8.23 10.16 8.37 9.64 8.62 9.17C8.88 8.71 9.26 8.33 9.72 8.06C10 7.91 10.22 7.67 10.35 7.39C10.49 7.1 10.53 6.78 10.47 6.47C10.41 6.17 10.26 5.9 10.05 5.69C9.84 5.47 9.56 5.33 9.27 5.27C9.05 5.23 8.83 5.24 8.62 5.3C8.4 5.35 8.21 5.45 8.04 5.59C7.87 5.73 7.73 5.91 7.64 6.11C7.54 6.31 7.5 6.53 7.5 6.75C7.5 6.94 7.42 7.13 7.28 7.28C7.13 7.42 6.94 7.5 6.75 7.5C6.55 7.5 6.36 7.42 6.21 7.28C6.07 7.13 6 6.94 6 6.75C6 6.22 6.14 5.7 6.4 5.24C6.67 4.78 7.05 4.4 7.51 4.14C7.97 3.88 8.49 3.74 9.02 3.75C9.55 3.75 10.07 3.89 10.52 4.16C10.98 4.43 11.35 4.82 11.61 5.28C11.87 5.74 12 6.26 12 6.79C11.99 7.32 11.84 7.84 11.57 8.29C11.29 8.75 10.91 9.12 10.44 9.37Z" fill="#7F89C1" fill-opacity="1.000000" fill-rule="nonzero"/>
	</g>
</svg>
