<svg width="16.000000" height="16.000000" viewBox="0 0 16 16" fill="none" xmlns="http://www.w3.org/2000/svg" xmlns:xlink="http://www.w3.org/1999/xlink">
	<desc>
			Created with Pixso.
	</desc>
	<defs/>
	<path d="M6.85 0C3.07 0 0 3.07 0 6.85C0 10.64 3.07 13.71 6.85 13.71C8.47 13.71 9.96 13.15 11.13 12.21L14.69 15.77C14.99 16.07 15.47 16.07 15.77 15.77C16.07 15.47 16.07 14.99 15.77 14.69L12.21 11.13C13.15 9.96 13.71 8.47 13.71 6.85C13.71 3.07 10.64 0 6.85 0ZM6.85 1.52C3.91 1.52 1.52 3.91 1.52 6.85C1.52 9.8 3.91 12.19 6.85 12.19C9.8 12.19 12.19 9.8 12.19 6.85C12.19 3.91 9.8 1.52 6.85 1.52Z" fill="#7F89C1" fill-opacity="1.000000" fill-rule="evenodd"/>
</svg>
