<svg width="17.000000" height="18.000010" viewBox="0 0 17 18" fill="none" xmlns="http://www.w3.org/2000/svg" xmlns:xlink="http://www.w3.org/1999/xlink">

	<path id="Vector" d="M3.5 8.01C3.59 6.49 4.37 1.68 10.68 0.8C11.01 0.75 11.31 0.62 11.56 0.41C11.65 0.32 11.75 0.23 11.84 0.13C11.98 -0.03 12.22 -0.05 12.38 0.09L12.39 0.1C12.53 0.22 12.56 0.44 12.46 0.59C11.88 1.43 10.35 3.84 11.81 7.8C11.91 8.08 11.71 8.37 11.42 8.37C11.25 8.37 11.09 8.26 11.03 8.1C10.73 7.36 10.03 5.46 10.76 2.36C10.81 2.15 10.75 1.92 10.59 1.77C10.44 1.62 10.22 1.56 10.01 1.61C8.76 1.92 4.6 2.99 4.31 8.06C4.3 8.27 4.12 8.44 3.91 8.44C3.67 8.44 3.49 8.24 3.5 8.01Z" fill="#7F89C1" fill-opacity="1.000000" fill-rule="nonzero"/>
	<path id="Vector" d="M12.6 1.63C12.41 2.7 12.17 6.05 16.63 5.77C16.81 5.76 16.94 5.58 16.89 5.4C16.61 4.47 15.63 1.96 13 1.37C12.82 1.32 12.64 1.45 12.6 1.63Z" fill="#7F89C1" fill-opacity="1.000000" fill-rule="nonzero"/>
	<path id="Vector" d="M17 13.67C17 16.06 15.05 17.99 12.66 17.99C10.27 17.99 8.33 16.06 8.33 13.67C8.33 11.29 10.27 9.35 12.66 9.35C15.05 9.35 17 11.29 17 13.67Z" fill="#7F89C1" fill-opacity="1.000000" fill-rule="nonzero"/>
	<path id="Vector" d="M6.68 13.67C6.68 12.75 6.92 11.89 7.35 11.14C7.48 10.93 7.43 10.65 7.25 10.48C6.41 9.72 5.28 9.28 4.05 9.36C1.9 9.5 0.16 11.22 0.01 13.36C-0.17 15.89 1.83 17.99 4.33 17.99C5.45 17.99 6.48 17.57 7.25 16.87C7.43 16.7 7.48 16.42 7.35 16.2C6.92 15.46 6.68 14.59 6.68 13.67Z" fill="#7F89C1" fill-opacity="1.000000" fill-rule="nonzero"/>
	<path id="Vector" d="M3.5 8.01C3.59 6.49 4.37 1.68 10.68 0.8C11.01 0.75 11.31 0.62 11.56 0.41C11.65 0.32 11.75 0.23 11.84 0.13C11.98 -0.03 12.22 -0.05 12.38 0.09L12.39 0.1C12.53 0.22 12.56 0.44 12.46 0.59C11.88 1.43 10.35 3.84 11.81 7.8C11.91 8.08 11.71 8.37 11.42 8.37C11.25 8.37 11.09 8.26 11.03 8.1C10.73 7.36 10.03 5.46 10.76 2.36C10.81 2.15 10.75 1.92 10.59 1.77C10.44 1.62 10.22 1.56 10.01 1.61C8.76 1.92 4.6 2.99 4.31 8.06C4.3 8.27 4.12 8.44 3.91 8.44C3.67 8.44 3.49 8.24 3.5 8.01Z" fill="#7F89C1" fill-opacity="1.000000" fill-rule="nonzero"/>
	<path id="Vector" d="M12.6 1.63C12.41 2.7 12.17 6.05 16.63 5.77C16.81 5.76 16.94 5.58 16.89 5.4C16.61 4.47 15.63 1.96 13 1.37C12.82 1.32 12.64 1.45 12.6 1.63Z" fill="#7F89C1" fill-opacity="1.000000" fill-rule="nonzero"/>
	<path id="Vector" d="M17 13.67C17 16.06 15.05 18 12.66 18C10.27 18 8.33 16.06 8.33 13.67C8.33 11.29 10.27 9.35 12.66 9.35C15.05 9.35 17 11.29 17 13.67Z" fill="#7F89C1" fill-opacity="1.000000" fill-rule="nonzero"/>
	<path id="Vector" d="M6.68 13.67C6.68 12.75 6.92 11.89 7.35 11.14C7.48 10.93 7.43 10.65 7.25 10.48C6.41 9.72 5.28 9.28 4.05 9.36C1.9 9.5 0.16 11.22 0.01 13.36C-0.17 15.89 1.83 17.99 4.33 17.99C5.45 17.99 6.48 17.57 7.25 16.87C7.43 16.7 7.48 16.42 7.35 16.2C6.92 15.46 6.68 14.59 6.68 13.67Z" fill="#7F89C1" fill-opacity="1.000000" fill-rule="nonzero"/>
</svg>
