<svg width="48.000000" height="48.000000" viewBox="0 0 48 48" fill="none" xmlns="http://www.w3.org/2000/svg" xmlns:xlink="http://www.w3.org/1999/xlink">
	<desc>
			Created with Pixso.
	</desc>
	<defs>
		<linearGradient x1="24.000000" y1="0.000000" x2="24.000000" y2="48.000000" id="paint_linear_19_11565_0" gradientUnits="userSpaceOnUse">
			<stop stop-color="#51BCE9"/>
			<stop offset="1.000000" stop-color="#2C7DC8"/>
		</linearGradient>
	</defs>
	<rect id="Rectangle 2" rx="16.000000" width="48.000000" height="48.000000" fill="url(#paint_linear_19_11565_0)" fill-opacity="1.000000"/>
	<path id="Vector" d="M18 22.44C18.11 20.45 19.05 14.19 26.76 13.04C27.15 12.98 27.52 12.81 27.82 12.53C27.93 12.42 28.06 12.3 28.17 12.17C28.34 11.96 28.63 11.94 28.82 12.12L28.84 12.13C29.01 12.29 29.05 12.57 28.91 12.78C28.21 13.87 26.35 17.01 28.13 22.17C28.25 22.53 28 22.91 27.65 22.91C27.44 22.91 27.25 22.77 27.17 22.56C26.81 21.6 25.95 19.11 26.85 15.07C26.91 14.8 26.83 14.51 26.64 14.31C26.45 14.11 26.18 14.04 25.93 14.1C24.41 14.51 19.33 15.9 18.98 22.5C18.96 22.78 18.75 23 18.49 23C18.2 22.99 17.98 22.74 18 22.44Z" fill="#FFFFFF" fill-opacity="1.000000" fill-rule="nonzero"/>
	<path id="Vector" d="M29.11 14.3C28.85 15.51 28.51 19.29 34.62 18.98C34.88 18.96 35.05 18.76 34.98 18.56C34.6 17.51 33.26 14.67 29.65 14C29.4 13.96 29.15 14.09 29.11 14.3Z" fill="#FFFFFF" fill-opacity="1.000000" fill-rule="nonzero"/>
	<path id="Vector" d="M35 29.5C35 32.53 32.53 35 29.5 35C26.46 35 24 32.53 24 29.5C24 26.46 26.46 24 29.5 24C32.53 24 35 26.46 35 29.5Z" fill="#FFFFFF" fill-opacity="1.000000" fill-rule="nonzero"/>
	<path id="Vector" d="M21.99 29.5C21.99 28.32 22.32 27.22 22.9 26.28C23.07 26 23.01 25.65 22.76 25.43C21.63 24.47 20.11 23.91 18.45 24.01C15.56 24.18 13.21 26.38 13.01 29.1C12.77 32.32 15.47 35 18.83 35C20.34 35 21.72 34.45 22.76 33.56C23.01 33.34 23.07 32.99 22.9 32.72C22.32 31.77 21.99 30.67 21.99 29.5Z" fill="#FFFFFF" fill-opacity="1.000000" fill-rule="nonzero"/>
</svg>
