<svg width="18.000000" height="18.000000" viewBox="0 0 18 18" fill="none" xmlns="http://www.w3.org/2000/svg" xmlns:xlink="http://www.w3.org/1999/xlink">
	<desc>
			Created with Pixso.
	</desc>
	<defs/>
	<path id="Vector" d="M9 0C4.03 0 0 4.03 0 9C0 13.96 4.03 18 9 18C13.96 18 18 13.96 18 9C18 4.03 13.96 0 9 0ZM12.87 8.71L11.25 10.04L11.92 12.09C12.01 12.36 11.92 12.67 11.69 12.84C11.46 13.02 11.14 13.03 10.89 12.87L9 11.64L7.14 12.89C7.03 12.96 6.89 13 6.76 13C6.62 13 6.47 12.96 6.35 12.87C6.12 12.69 6.02 12.38 6.11 12.11L6.75 10.04L5.12 8.71C4.9 8.52 4.82 8.22 4.91 7.95C5.01 7.68 5.27 7.5 5.56 7.5L7.62 7.5L8.35 5.55C8.45 5.28 8.71 5.1 9 5.1C9.28 5.1 9.54 5.28 9.64 5.55L10.37 7.5L12.43 7.5C12.72 7.5 12.98 7.68 13.08 7.95C13.17 8.22 13.09 8.53 12.87 8.72L12.87 8.71Z" fill="#008EFF" fill-opacity="1.000000" fill-rule="nonzero"/>
</svg>
