<svg width="38.000000" height="38.000000" viewBox="0 0 38 38" fill="none" xmlns="http://www.w3.org/2000/svg" xmlns:xlink="http://www.w3.org/1999/xlink">
	<desc>
			Created with Pixso.
	</desc>
	<defs/>
	<path id="Vector" d="M10.64 0L27.35 0C33.23 0 38 4.76 38 10.64L38 27.36C38 33.23 33.23 38 27.35 38L10.64 38C4.76 38 0 33.23 0 27.36L0 10.64C0 4.76 4.76 0 10.64 0Z" fill="#2FBAFF" fill-opacity="1.000000" fill-rule="evenodd"/>
	<path id="telegram" d="M11.2 18.24C15.9 16.19 19.03 14.84 20.6 14.19C25.07 12.33 26 12.01 26.61 12C26.74 11.99 27.04 12.03 27.23 12.18C27.39 12.31 27.44 12.49 27.46 12.62C27.48 12.74 27.51 13.03 27.49 13.25C27.25 15.8 26.2 21.98 25.66 24.84C25.44 26.05 24.99 26.45 24.56 26.49C23.62 26.58 22.91 25.87 22.01 25.28C20.59 24.35 19.79 23.77 18.41 22.86C16.82 21.81 17.85 21.24 18.76 20.3C19 20.05 23.12 16.3 23.2 15.96C23.21 15.92 23.22 15.76 23.12 15.67C23.03 15.59 22.89 15.62 22.79 15.64C22.65 15.67 20.38 17.17 15.99 20.13C15.35 20.58 14.77 20.79 14.25 20.78C13.67 20.77 12.56 20.45 11.74 20.19C10.73 19.86 9.93 19.69 10 19.13C10.04 18.84 10.44 18.54 11.2 18.24Z" fill="#FFFFFF" fill-opacity="1.000000" fill-rule="nonzero"/>
</svg>
