<svg width="14.000000" height="12.174072" viewBox="0 0 14 12.1741" fill="none" xmlns="http://www.w3.org/2000/svg" xmlns:xlink="http://www.w3.org/1999/xlink">
	<defs/>
	<path id="telegram" d="M0.96 5.24C4.72 3.52 7.22 2.39 8.48 1.84C12.06 0.28 12.8 0 13.28 0C13.39 -0.01 13.63 0.02 13.78 0.15C13.91 0.26 13.95 0.41 13.97 0.52C13.98 0.62 14.01 0.86 13.99 1.05C13.79 3.19 12.96 8.38 12.53 10.78C12.35 11.79 11.99 12.13 11.65 12.16C10.9 12.24 10.33 11.64 9.61 11.15C8.47 10.36 7.83 9.88 6.73 9.12C5.45 8.24 6.28 7.75 7.01 6.96C7.2 6.76 10.49 3.61 10.56 3.32C10.57 3.29 10.57 3.15 10.5 3.08C10.42 3.01 10.31 3.04 10.23 3.06C10.12 3.08 8.3 4.34 4.79 6.83C4.28 7.2 3.81 7.38 3.4 7.37C2.94 7.36 2.05 7.1 1.39 6.87C0.58 6.6 -0.06 6.45 0 5.98C0.03 5.74 0.35 5.49 0.96 5.24Z" fill="#FFFFFF" fill-opacity="1.000000" fill-rule="nonzero"/>
</svg>
