<svg width="60.000000" height="60.000000" viewBox="0 0 60 60" fill="none" xmlns="http://www.w3.org/2000/svg" xmlns:xlink="http://www.w3.org/1999/xlink">
	<desc>
			Created with Pixso.
	</desc>
	<defs/>
	<rect rx="12.000000" width="60.000000" height="60.000000" fill="#008EFF" fill-opacity="1.000000"/>
	<path d="M30 19.58C23.22 19.58 17.71 25.09 17.71 31.87C17.71 38.64 23.22 44.16 30 44.16C36.77 44.16 42.28 38.65 42.28 31.88C42.28 25.11 36.77 19.58 30 19.58ZM31.06 31.41C31.06 31.99 30.58 32.47 30 32.47C29.41 32.47 28.93 31.99 28.93 31.41L28.93 24.33C28.93 23.75 29.41 23.27 30 23.27C30.58 23.27 31.06 23.75 31.06 24.33L31.06 31.41Z" fill="#FFFFFF" fill-opacity="1.000000" fill-rule="nonzero"/>
	<path d="M34.09 17.88L25.9 17.88C25.33 17.88 24.88 17.43 24.88 16.86C24.88 16.3 25.33 15.83 25.9 15.83L34.09 15.83C34.66 15.83 35.11 16.28 35.11 16.85C35.11 17.42 34.66 17.88 34.09 17.88Z" fill="#FFFFFF" fill-opacity="1.000000" fill-rule="nonzero"/>
	<g opacity="0.000000"/>
</svg>
