<svg width="16.000000" height="16.000000" viewBox="0 0 16 16" fill="none" xmlns="http://www.w3.org/2000/svg" xmlns:xlink="http://www.w3.org/1999/xlink">
	<desc>
			Created with Pixso.
	</desc>
	<defs/>
	<path id="Vector" d="M5.33 8C7.53 8 9.33 6.2 9.33 4C9.33 1.79 7.53 0 5.33 0C3.12 0 1.33 1.79 1.33 4C1.33 6.2 3.12 8 5.33 8ZM13.33 9.33L10.66 9.33L10.66 8.66C10.66 7.93 11.26 7.33 12 7.33C12.37 7.33 12.74 7.49 12.99 7.77C13.24 8.05 13.66 8.07 13.93 7.82C14.21 7.58 14.23 7.16 13.98 6.88C13.48 6.32 12.75 6 12 6C10.52 6 9.33 7.19 9.33 8.66L9.33 9.69C8.53 10.15 8 11.01 8 12L8 13.33C8 14.8 9.19 16 10.66 16L13.33 16C14.8 16 16 14.8 16 13.33L16 12C16 10.52 14.8 9.33 13.33 9.33ZM12 13.66C11.44 13.66 11 13.21 11 12.66C11 12.11 11.44 11.66 12 11.66C12.55 11.66 13 12.11 13 12.66C13 13.21 12.55 13.66 12 13.66ZM6.66 13.33C6.66 14.35 7.05 15.29 7.68 16L0.66 16C0.29 16 0 15.7 0 15.33L0 14.84C0 12.1 1.99 9.67 4.72 9.36C5.36 9.29 5.98 9.33 6.56 9.47C6.97 9.57 7.15 10.03 6.99 10.42C6.78 10.9 6.66 11.44 6.66 12L6.66 13.33Z" fill="#FFFFFF" fill-opacity="1.000000" fill-rule="nonzero"/>
</svg>
