<svg width="60.000000" height="60.000000" viewBox="0 0 60 60" fill="none" xmlns="http://www.w3.org/2000/svg" xmlns:xlink="http://www.w3.org/1999/xlink">
	<desc>
			Created with Pixso.
	</desc>
	<defs/>
	<rect rx="12.000000" width="60.000000" height="60.000000" fill="#008EFF" fill-opacity="1.000000"/>
	<g opacity="0.000000"/>
	<path d="M30 33C22.48 33 16.36 38.04 16.36 44.25C16.36 44.67 16.69 45 17.11 45L42.88 45C43.3 45 43.63 44.67 43.63 44.25C43.63 38.04 37.51 33 30 33Z" fill="#FFFFFF" fill-opacity="1.000000" fill-rule="nonzero"/>
	<path d="M30 15C28.23 15 26.6 15.61 25.32 16.65C23.59 18.01 22.5 20.12 22.5 22.5C22.5 23.91 22.89 25.23 23.59 26.35C24.88 28.53 27.25 30 30 30C31.89 30 33.61 29.31 34.93 28.12C35.51 27.63 36.02 27.03 36.41 26.35C37.1 25.23 37.5 23.91 37.5 22.5C37.5 18.36 34.14 15 30 15ZM33.88 21.69L29.88 25.38C29.6 25.63 29.26 25.75 28.91 25.75C28.56 25.75 28.19 25.62 27.92 25.35L26.08 23.49C25.52 22.93 25.52 22.05 26.08 21.49C26.64 20.94 27.52 20.94 28.08 21.49L28.96 22.38L31.98 19.6C32.55 19.08 33.43 19.11 33.96 19.68C34.48 20.26 34.45 21.16 33.88 21.69Z" fill="#FFFFFF" fill-opacity="1.000000" fill-rule="nonzero"/>
</svg>
