<svg width="38" height="39" viewBox="0 0 38 39" fill="none" xmlns="http://www.w3.org/2000/svg">
<path d="M27.36 0.976807H10.64C4.76369 0.976807 0 5.7405 0 11.6168V28.3368C0 34.2131 4.76369 38.9768 10.64 38.9768H27.36C33.2363 38.9768 38 34.2131 38 28.3368V11.6168C38 5.7405 33.2363 0.976807 27.36 0.976807Z" fill="#0077FF"/>
<path d="M19.8004 25.5482C13.6506 25.5482 10.1441 21.2124 10.0002 13.9861H13.0932C13.1921 19.2854 15.4578 21.5274 17.256 21.9906V13.9861H20.1601V18.5535C21.9313 18.3589 23.8014 16.2744 24.4308 13.9768H27.3259C27.0899 15.1662 26.6183 16.2926 25.9407 17.2857C25.2631 18.2788 24.3941 19.1172 23.3879 19.7486C24.5108 20.3245 25.5024 21.1392 26.2975 22.1389C27.0925 23.1386 27.6729 24.3006 28.0002 25.5482H24.8084C24.1251 23.3525 22.4168 21.6479 20.1601 21.4162V25.5482H19.8094H19.8004Z" fill="white"/>
</svg>
