<svg width="14.000000" height="8.615479" viewBox="0 0 14 8.61548" fill="none" xmlns="http://www.w3.org/2000/svg" xmlns:xlink="http://www.w3.org/1999/xlink">

	<defs/>
	<path id="Vector" d="M7.63 8.61C2.85 8.61 0.12 5.38 0 0L2.39 0C2.47 3.94 4.23 5.62 5.63 5.96L5.63 0L7.89 0L7.89 3.4C9.28 3.26 10.72 1.69 11.21 0L13.46 0C13.28 0.88 12.92 1.72 12.39 2.46C11.86 3.2 11.19 3.82 10.41 4.29C11.28 4.72 12.05 5.33 12.67 6.07C13.29 6.82 13.74 7.68 14 8.61L11.51 8.61C10.98 6.97 9.65 5.71 7.9 5.53L7.9 8.61L7.63 8.61Z" fill="#FFFFFF" fill-opacity="1.000000" fill-rule="nonzero"/>
</svg>
