<svg width="24.000000" height="24.000000" viewBox="0 0 24 24" fill="none" xmlns="http://www.w3.org/2000/svg" xmlns:xlink="http://www.w3.org/1999/xlink">
	<rect id="vuesax/bold/wallet-2" rx="-0.500000" width="23.000000" height="23.000000" transform="translate(0.500000 0.500000)" fill="#FFFFFF" fill-opacity="0"/>
	<g opacity="0.000000"/>
	<path id="Vector" d="M22 10.97L22 13.03C22 13.58 21.56 14.03 21 14.05L19.04 14.05C17.95 14.05 16.96 13.26 16.87 12.18C16.82 11.55 17.06 10.96 17.48 10.55C17.84 10.17 18.35 9.95 18.91 9.95L21 9.95C21.56 9.97 22 10.42 22 10.97Z" fill="#FFFFFF" fill-opacity="1.000000" fill-rule="nonzero"/>
	<path id="Vector" d="M20.46 15.55L19.04 15.55C17.13 15.55 15.54 14.12 15.37 12.3C15.29 11.26 15.66 10.22 16.42 9.47C17.07 8.82 17.95 8.45 18.91 8.45L20.46 8.45C20.76 8.45 21 8.21 20.97 7.92C20.75 5.49 19.13 3.83 16.75 3.55C16.51 3.5 16.26 3.5 16 3.5L7 3.5C6.71 3.5 6.44 3.52 6.18 3.56C3.63 3.88 2 5.78 2 8.5L2 15.5C2 18.26 4.23 20.5 7 20.5L16 20.5C18.79 20.5 20.73 18.75 20.97 16.08C21 15.79 20.76 15.55 20.46 15.55ZM13 9.75L7 9.75C6.59 9.75 6.25 9.41 6.25 9C6.25 8.59 6.59 8.25 7 8.25L13 8.25C13.4 8.25 13.75 8.59 13.75 9C13.75 9.41 13.4 9.75 13 9.75Z" fill="#FFFFFF" fill-opacity="1.000000" fill-rule="nonzero"/>
</svg>